{"glyphs":{":":{"x_min":0,"x_max":268,"ha":268,"o":"m 80 465 q 80 492 96 508 q 113 525 140 525 q 167 525 183 508 q 199 491 199 464 q 199 437 182 420 q 166 404 139 404 q 112 404 96 421 q 80 438 80 465 z m 80 32 q 80 59 96 76 q 113 92 140 92 q 167 92 183 75 q 199 58 199 31 q 199 4 182 -12 q 166 -29 139 -29 q 112 -29 96 -12 q 80 5 80 32 z"},"$":{"x_min":0,"x_max":442,"ha":442,"o":"m 158 -90 q 145 -89 137 -81 q 129 -73 124 -61 q 120 -49 119 -35 q 118 -21 118 -6 q 72 13 48 44 q 24 76 24 104 q 24 142 36 156 q 47 171 67 171 q 81 171 96 153 q 110 135 128 113 q 132 145 137 190 q 142 236 148 290 q 125 305 104 322 q 82 338 66 358 q 49 379 39 404 q 29 430 29 461 q 29 499 40 532 q 50 566 70 592 q 91 618 121 636 q 151 653 190 660 q 191 665 191 670 q 193 691 206 706 q 218 722 246 719 q 267 717 274 692 q 281 668 280 637 q 329 621 355 588 q 381 554 381 509 q 381 457 331 457 q 320 457 312 464 q 304 472 298 483 q 291 494 284 507 q 278 520 269 532 q 267 519 262 471 q 258 423 251 357 q 279 341 306 322 q 334 303 356 278 q 379 254 393 222 q 407 189 407 146 q 407 112 391 82 q 375 52 348 30 q 321 7 286 -7 q 250 -21 211 -22 q 208 -35 204 -48 q 200 -60 194 -70 q 188 -80 179 -86 q 170 -92 158 -90 z m 177 546 q 157 535 147 514 q 137 494 137 468 q 137 438 162 415 z m 239 231 q 234 185 230 144 q 226 104 223 76 q 258 81 278 100 q 299 119 299 146 q 299 174 282 195 q 265 216 239 234 z"},"?":{"x_min":0,"x_max":394,"ha":394,"o":"m 195 586 q 183 586 173 578 q 163 570 154 560 q 145 551 136 543 q 128 535 119 535 q 103 535 92 548 q 80 560 80 577 q 80 595 92 612 q 105 628 124 640 q 144 653 168 660 q 192 668 214 668 q 280 668 318 636 q 356 605 356 544 q 356 522 344 490 q 333 459 316 423 q 300 387 280 350 q 260 313 244 279 q 227 245 216 216 q 204 187 204 169 q 204 148 192 141 q 180 134 169 134 q 152 134 146 146 q 140 157 140 171 q 140 195 148 226 q 157 258 170 292 q 184 327 199 363 q 214 399 228 430 q 241 462 250 487 q 258 512 258 525 q 258 548 242 567 q 227 586 195 586 z m 130 40 q 130 60 142 73 q 155 86 175 86 q 195 86 208 73 q 220 60 220 40 q 220 20 208 7 q 195 -6 175 -6 q 155 -6 142 7 q 130 20 130 40 z"},"<":{"x_min":0,"x_max":451,"ha":451,"o":"m 99 280 q 99 298 108 308 q 118 318 132 326 q 149 336 178 355 q 208 374 240 393 q 271 412 300 426 q 328 440 343 440 q 360 440 366 427 q 372 414 372 400 q 372 379 351 362 q 330 344 304 328 q 279 312 258 296 q 237 281 237 263 q 237 246 259 232 q 281 217 307 203 q 333 189 355 174 q 377 159 377 141 q 377 124 365 112 q 353 100 336 100 q 324 100 309 104 q 294 109 278 116 q 263 122 248 130 q 234 137 223 142 q 205 151 185 162 q 165 174 148 188 q 130 202 117 220 q 104 237 101 259 q 100 264 100 270 q 99 275 99 280 z"},"'":{"x_min":0,"x_max":208,"ha":208,"o":"m 63 586 q 63 599 64 610 q 64 622 68 631 q 72 640 80 645 q 88 650 104 650 q 131 650 137 637 q 143 624 143 600 q 143 587 142 570 q 142 554 138 539 q 135 524 127 514 q 119 504 103 504 q 90 504 82 512 q 74 521 70 533 q 65 545 64 560 q 63 574 63 586 z"},"=":{"x_min":0,"x_max":527,"ha":527,"o":"m 218 290 q 204 290 188 288 q 173 287 159 287 q 134 287 117 297 q 100 307 100 342 q 100 359 116 367 q 131 375 152 378 q 174 381 196 380 q 217 380 229 380 q 251 380 273 380 q 295 379 317 378 q 331 378 348 378 q 364 377 378 373 q 393 369 403 360 q 413 350 413 331 q 413 325 413 318 q 413 310 412 303 q 410 296 406 291 q 402 286 394 286 q 349 286 306 288 q 263 290 218 290 z m 217 164 q 203 164 188 162 q 172 161 158 161 q 134 161 117 171 q 100 181 100 216 q 100 233 116 241 q 131 249 152 252 q 174 255 196 254 q 217 254 229 254 q 251 254 273 254 q 295 253 317 252 q 330 252 346 252 q 363 251 378 247 q 393 243 403 234 q 413 224 413 206 q 413 187 411 178 q 409 168 403 164 q 397 160 386 160 q 376 160 359 160 q 324 160 288 162 q 252 164 217 164 z"},"a":{"x_min":0,"x_max":366,"ha":366,"o":"m 11 117 q 11 159 28 189 q 44 219 68 241 q 92 263 121 280 q 150 296 174 312 q 198 327 214 342 q 231 358 231 379 q 231 399 217 416 q 203 433 183 433 q 162 433 149 422 q 136 410 126 396 q 117 381 108 370 q 99 358 86 358 q 66 358 51 371 q 36 384 36 404 q 36 430 52 451 q 67 472 91 488 q 115 504 143 512 q 171 521 195 521 q 243 521 270 502 q 298 484 312 454 q 327 424 331 386 q 335 349 335 310 l 335 260 l 333 163 l 333 113 q 333 95 334 74 q 335 53 333 36 q 331 18 323 6 q 315 -6 298 -6 q 279 -6 269 1 q 259 8 254 16 q 248 25 246 32 q 243 39 237 39 q 231 39 222 32 q 212 25 198 16 q 185 7 168 0 q 150 -7 129 -7 q 102 -7 80 4 q 58 14 42 31 q 27 48 19 70 q 11 93 11 117 z m 107 135 q 107 110 122 98 q 138 87 161 87 q 184 87 198 96 q 213 106 222 122 q 230 138 234 158 q 237 177 237 196 q 237 210 232 221 q 227 232 210 232 q 195 232 177 223 q 159 214 144 200 q 128 185 118 168 q 107 151 107 135 z"},"L":{"x_min":0,"x_max":306,"ha":306,"o":"m 201 -5 q 194 -5 180 -5 q 167 -5 151 -6 q 135 -6 118 -6 q 100 -6 85 -6 q 67 -6 54 10 q 42 26 42 69 q 42 132 40 214 q 39 295 39 381 q 39 470 42 549 q 43 565 45 582 q 47 598 54 612 q 60 625 72 634 q 85 642 106 642 q 122 642 130 636 q 139 629 143 619 q 147 609 148 596 q 149 584 149 571 q 149 529 148 478 q 147 428 146 376 q 146 324 145 274 q 144 223 144 181 q 144 152 146 133 q 147 114 152 103 q 158 92 168 88 q 178 83 195 83 q 223 83 244 82 q 264 82 277 78 q 290 74 296 65 q 302 56 302 39 q 302 21 290 12 q 279 3 263 0 q 247 -4 230 -4 q 213 -5 201 -5 z"},"3":{"x_min":0,"x_max":2103,"ha":2103,"o":"m 47 319 q 47 398 64 447 q 80 496 110 523 q 141 550 184 560 q 226 569 278 569 q 330 569 372 560 q 415 550 445 523 q 475 496 492 447 q 508 398 508 319 q 508 240 492 191 q 475 142 445 114 q 415 87 372 78 q 330 68 278 68 q 226 68 184 78 q 141 87 110 114 q 80 142 64 191 q 47 240 47 319 z m 79 319 q 79 246 92 202 q 106 157 132 132 q 158 108 195 100 q 232 92 278 92 q 324 92 361 100 q 398 108 424 132 q 449 157 462 202 q 476 246 476 319 q 476 392 462 436 q 449 481 424 505 q 398 529 361 537 q 324 545 278 545 q 232 545 195 537 q 158 529 132 504 q 106 480 92 436 q 79 391 79 319 z m 2007 318 q 2007 238 1962 192 q 1917 146 1837 146 q 1757 146 1712 192 q 1667 238 1667 318 q 1667 398 1712 444 q 1757 490 1837 490 q 1917 490 1962 444 q 2007 397 2007 318 z m 293 256 l 293 298 q 293 301 291 303 l 187 409 l 187 208 q 187 191 193 191 l 137 191 q 143 191 143 208 l 143 453 q 143 468 137 470 l 193 470 q 191 470 191 468 q 191 463 193 456 q 195 449 203 441 l 290 353 q 293 350 293 353 l 293 469 q 293 485 287 486 l 346 486 q 344 486 340 481 q 337 476 337 469 l 337 256 z m 218 469 q 218 484 212 486 l 268 486 q 265 486 264 481 q 262 476 262 469 l 262 389 l 218 433 z m 880 317 q 880 257 846 214 q 811 170 753 158 q 736 154 718 154 q 701 153 684 153 l 568 153 l 568 483 l 687 483 q 728 483 763 474 q 798 465 824 445 q 850 425 865 394 q 880 362 880 317 z m 945 153 l 945 483 l 1184 483 l 1184 419 l 1030 419 l 1030 362 l 1173 362 l 1173 299 l 1030 299 l 1030 217 l 1184 217 l 1184 153 z m 1517 153 l 1517 374 l 1456 230 l 1397 230 l 1335 374 l 1335 153 l 1255 153 l 1255 483 l 1354 483 l 1428 317 l 1503 483 l 1602 483 l 1602 153 z m 212 151 q 214 151 216 156 q 218 161 218 168 l 218 370 l 262 325 l 262 260 q 262 251 268 251 l 361 251 q 368 251 368 260 l 368 441 q 368 448 366 453 q 365 458 362 458 l 418 458 q 416 458 414 453 q 412 448 412 441 l 412 184 q 412 167 418 167 l 362 167 q 368 167 368 184 l 368 211 q 368 217 366 218 q 365 220 361 220 l 268 220 q 265 220 264 218 q 262 217 262 211 l 262 168 q 262 161 264 156 q 265 151 268 151 z m 1837 208 q 1860 208 1876 218 q 1892 228 1902 244 q 1911 259 1915 279 q 1919 299 1919 318 q 1919 338 1915 358 q 1911 377 1902 392 q 1892 408 1876 418 q 1860 428 1837 428 q 1814 428 1798 418 q 1782 408 1772 392 q 1763 377 1759 358 q 1755 338 1755 318 q 1755 299 1759 279 q 1763 259 1772 244 q 1782 228 1798 218 q 1814 208 1837 208 z m 792 319 q 792 348 784 368 q 775 387 760 399 q 745 411 723 416 q 701 421 674 421 l 653 421 l 653 215 l 674 215 q 729 215 760 237 q 792 259 792 319 z m 337 215 l 337 184 q 337 177 339 172 q 341 167 343 167 l 287 167 q 293 169 293 184 l 293 215 z"},";":{"x_min":0,"x_max":268,"ha":268,"o":"m 80 465 q 80 492 96 508 q 113 525 140 525 q 167 525 183 508 q 199 491 199 464 q 199 437 182 420 q 166 404 139 404 q 112 404 96 421 q 80 438 80 465 z m 81 36 q 81 62 98 78 q 115 94 141 94 q 167 94 184 79 q 201 64 201 37 q 201 24 193 2 q 185 -19 173 -39 q 161 -59 146 -74 q 131 -88 116 -88 q 110 -88 104 -84 q 97 -80 97 -74 q 97 -68 103 -60 q 109 -51 116 -42 q 122 -33 128 -24 q 134 -15 134 -6 q 131 -10 126 -10 q 121 -11 117 -11 q 98 -11 90 4 q 81 19 81 36 z"},"J":{"x_min":0,"x_max":353,"ha":353,"o":"m 151 -12 q 125 -11 100 0 q 75 11 56 30 q 37 49 26 74 q 14 99 14 127 q 14 150 20 164 q 27 179 50 179 q 66 179 76 162 q 87 144 96 124 q 106 103 116 86 q 126 68 139 68 q 160 68 171 86 q 182 105 188 129 q 193 153 194 176 q 195 200 195 210 q 195 270 197 330 q 199 390 197 450 q 196 467 196 486 q 195 505 190 522 q 184 538 172 548 q 161 559 138 559 q 125 559 110 558 q 95 558 82 561 q 68 564 59 572 q 50 581 50 599 q 50 617 68 626 q 85 634 108 637 q 132 640 155 640 q 178 639 189 639 q 200 639 224 640 q 248 640 272 638 q 296 635 314 628 q 332 620 332 603 q 332 574 324 566 q 315 559 304 559 q 298 559 294 556 q 289 553 289 537 q 289 514 294 470 q 298 425 297 374 q 297 358 298 322 q 299 287 297 244 q 295 200 288 154 q 282 108 266 70 q 249 33 222 10 q 194 -14 151 -12 z"},"V":{"x_min":0,"x_max":422,"ha":422,"o":"m 218 -8 q 196 -8 182 -2 q 167 5 157 17 q 147 29 140 45 q 134 61 127 80 q 99 158 81 242 q 63 326 46 406 q 37 451 26 496 q 16 542 16 587 q 16 604 27 620 q 38 637 58 637 q 69 637 84 628 q 98 618 105 598 q 115 570 125 526 q 135 481 146 431 q 157 381 167 330 q 177 280 186 240 q 195 200 202 174 q 210 149 215 149 q 221 149 228 173 q 236 197 244 236 q 253 274 262 321 q 271 368 279 414 q 287 459 294 498 q 302 538 307 560 q 318 605 329 618 q 340 631 360 631 q 375 631 384 626 q 393 622 398 614 q 402 607 403 598 q 404 589 404 580 q 404 558 399 526 q 394 493 386 456 q 379 420 371 383 q 363 346 356 315 q 353 299 346 269 q 339 239 330 203 q 321 167 309 130 q 297 92 283 62 q 269 31 252 12 q 236 -8 218 -8 z"},"\"":{"x_min":0,"x_max":300,"ha":300,"o":"m 63 586 q 63 599 64 610 q 64 622 68 631 q 72 640 80 645 q 88 650 104 650 q 131 650 137 637 q 143 624 143 600 q 143 587 142 570 q 142 554 138 539 q 135 524 127 514 q 119 504 103 504 q 90 504 82 512 q 74 521 70 533 q 65 545 64 560 q 63 574 63 586 z m 162 586 q 162 599 162 610 q 163 622 167 631 q 171 640 179 645 q 187 650 203 650 q 230 650 236 637 q 242 624 242 600 q 242 587 242 570 q 241 554 238 539 q 234 524 226 514 q 218 504 202 504 q 189 504 181 512 q 173 521 168 533 q 164 545 163 560 q 162 574 162 586 z"},"7":{"x_min":0,"x_max":2103,"ha":2103,"o":"m 47 319 q 47 398 64 447 q 80 496 110 523 q 141 550 184 560 q 226 569 278 569 q 330 569 372 560 q 415 550 445 523 q 475 496 492 447 q 508 398 508 319 q 508 240 492 191 q 475 142 445 114 q 415 87 372 78 q 330 68 278 68 q 226 68 184 78 q 141 87 110 114 q 80 142 64 191 q 47 240 47 319 z m 79 319 q 79 246 92 202 q 106 157 132 132 q 158 108 195 100 q 232 92 278 92 q 324 92 361 100 q 398 108 424 132 q 449 157 462 202 q 476 246 476 319 q 476 392 462 436 q 449 481 424 505 q 398 529 361 537 q 324 545 278 545 q 232 545 195 537 q 158 529 132 504 q 106 480 92 436 q 79 391 79 319 z m 2007 318 q 2007 238 1962 192 q 1917 146 1837 146 q 1757 146 1712 192 q 1667 238 1667 318 q 1667 398 1712 444 q 1757 490 1837 490 q 1917 490 1962 444 q 2007 397 2007 318 z m 293 256 l 293 298 q 293 301 291 303 l 187 409 l 187 208 q 187 191 193 191 l 137 191 q 143 191 143 208 l 143 453 q 143 468 137 470 l 193 470 q 191 470 191 468 q 191 463 193 456 q 195 449 203 441 l 290 353 q 293 350 293 353 l 293 469 q 293 485 287 486 l 346 486 q 344 486 340 481 q 337 476 337 469 l 337 256 z m 218 469 q 218 484 212 486 l 268 486 q 265 486 264 481 q 262 476 262 469 l 262 389 l 218 433 z m 880 317 q 880 257 846 214 q 811 170 753 158 q 736 154 718 154 q 701 153 684 153 l 568 153 l 568 483 l 687 483 q 728 483 763 474 q 798 465 824 445 q 850 425 865 394 q 880 362 880 317 z m 945 153 l 945 483 l 1184 483 l 1184 419 l 1030 419 l 1030 362 l 1173 362 l 1173 299 l 1030 299 l 1030 217 l 1184 217 l 1184 153 z m 1517 153 l 1517 374 l 1456 230 l 1397 230 l 1335 374 l 1335 153 l 1255 153 l 1255 483 l 1354 483 l 1428 317 l 1503 483 l 1602 483 l 1602 153 z m 212 151 q 214 151 216 156 q 218 161 218 168 l 218 370 l 262 325 l 262 260 q 262 251 268 251 l 361 251 q 368 251 368 260 l 368 441 q 368 448 366 453 q 365 458 362 458 l 418 458 q 416 458 414 453 q 412 448 412 441 l 412 184 q 412 167 418 167 l 362 167 q 368 167 368 184 l 368 211 q 368 217 366 218 q 365 220 361 220 l 268 220 q 265 220 264 218 q 262 217 262 211 l 262 168 q 262 161 264 156 q 265 151 268 151 z m 1837 208 q 1860 208 1876 218 q 1892 228 1902 244 q 1911 259 1915 279 q 1919 299 1919 318 q 1919 338 1915 358 q 1911 377 1902 392 q 1892 408 1876 418 q 1860 428 1837 428 q 1814 428 1798 418 q 1782 408 1772 392 q 1763 377 1759 358 q 1755 338 1755 318 q 1755 299 1759 279 q 1763 259 1772 244 q 1782 228 1798 218 q 1814 208 1837 208 z m 792 319 q 792 348 784 368 q 775 387 760 399 q 745 411 723 416 q 701 421 674 421 l 653 421 l 653 215 l 674 215 q 729 215 760 237 q 792 259 792 319 z m 337 215 l 337 184 q 337 177 339 172 q 341 167 343 167 l 287 167 q 293 169 293 184 l 293 215 z"},"S":{"x_min":0,"x_max":426,"ha":426,"o":"m 203 648 q 287 648 334 608 q 381 569 381 509 q 381 457 331 457 q 315 457 305 472 q 295 488 284 506 q 274 525 259 540 q 244 556 217 556 q 179 556 158 530 q 137 505 137 468 q 137 441 157 421 q 177 401 207 382 q 237 364 272 344 q 307 325 337 298 q 367 271 387 234 q 407 198 407 146 q 407 111 390 80 q 373 50 344 27 q 316 4 279 -9 q 242 -22 201 -22 q 159 -22 126 -10 q 93 3 70 22 q 48 41 36 63 q 24 85 24 104 q 24 142 36 156 q 47 171 67 171 q 80 171 94 156 q 107 141 124 122 q 140 104 159 89 q 178 74 201 74 q 245 74 272 94 q 299 115 299 146 q 299 176 279 198 q 259 221 229 241 q 199 261 164 280 q 129 300 99 325 q 69 350 49 382 q 29 415 29 461 q 29 501 40 536 q 52 570 74 595 q 96 620 128 634 q 161 648 203 648 z"},"}":{"x_min":0,"x_max":306,"ha":306,"o":"m 245 323 q 245 304 238 295 q 232 286 224 278 q 216 269 209 256 q 202 242 202 214 q 201 188 204 162 q 207 136 207 110 q 206 76 200 42 q 193 7 170 -19 q 158 -34 141 -48 q 124 -62 104 -61 q 87 -61 76 -48 q 64 -36 64 -20 q 64 -8 72 2 q 80 12 90 22 q 99 33 107 44 q 115 56 115 71 q 115 110 112 148 q 110 187 111 226 q 111 238 115 250 q 119 263 124 274 q 128 286 132 296 q 136 306 136 313 q 136 318 132 326 q 129 333 124 342 q 119 351 115 360 q 111 368 109 375 q 101 407 104 443 q 106 479 106 512 q 106 534 106 560 q 105 587 98 608 q 93 622 84 636 q 75 649 76 665 q 76 679 88 690 q 100 700 114 700 q 138 700 154 684 q 169 668 178 643 q 187 618 191 588 q 195 557 196 527 q 198 497 197 471 q 196 445 196 429 q 196 398 204 384 q 211 370 220 362 q 229 354 237 347 q 245 340 245 323 z"},"Z":{"x_min":0,"x_max":400,"ha":400,"o":"m 227 530 q 227 536 219 540 q 211 544 197 544 l 116 544 q 98 544 84 545 q 71 546 61 550 q 51 555 46 564 q 41 574 41 591 q 41 613 46 624 q 50 635 58 639 q 66 643 78 643 q 89 643 103 643 l 137 643 l 225 644 l 259 644 q 277 644 298 646 q 318 647 336 643 q 353 639 365 628 q 377 616 377 590 q 377 575 362 538 q 347 501 324 452 q 301 404 274 351 q 248 298 225 250 q 202 203 187 168 q 172 132 172 119 q 172 108 178 102 q 185 97 195 95 q 205 93 216 93 q 227 93 236 93 q 269 93 294 92 q 319 92 340 92 q 367 92 377 84 q 387 77 387 44 q 387 26 382 16 q 376 7 362 2 q 348 -2 326 -2 q 303 -3 268 -3 l 220 -3 l 127 -2 l 79 -2 q 52 -2 36 4 q 21 10 21 41 q 21 60 36 99 q 52 138 74 187 q 97 236 124 289 q 151 342 174 390 q 196 438 212 476 q 227 513 227 530 z"},"x":{"x_min":0,"x_max":358,"ha":358,"o":"m 167 175 q 164 175 156 160 q 147 144 136 120 q 124 97 111 70 q 98 42 86 19 q 78 5 66 2 q 54 0 43 0 q 30 0 21 4 q 12 9 12 24 q 12 39 18 60 q 24 80 33 102 q 42 125 53 148 q 64 172 73 192 q 82 211 88 225 q 95 239 95 244 q 95 251 82 283 q 70 315 54 353 q 38 391 25 426 q 12 460 12 473 q 12 486 16 494 q 21 503 28 508 q 35 514 42 516 q 49 518 55 518 q 69 518 84 512 q 100 507 107 493 q 120 467 131 436 q 142 406 150 380 q 159 354 166 336 q 172 319 176 319 q 180 319 188 336 q 197 353 208 378 q 219 402 231 431 q 243 460 254 484 q 260 498 275 506 q 290 514 303 514 q 336 514 336 481 q 336 469 330 448 q 324 427 315 402 q 306 378 295 352 q 284 326 275 304 q 266 282 260 266 q 254 250 254 245 q 254 238 262 218 q 270 197 281 172 q 292 146 304 120 q 316 94 324 77 q 331 62 336 51 q 340 40 340 28 q 340 14 326 4 q 313 -5 301 -5 q 270 -5 248 28 q 232 54 219 80 q 206 106 196 127 q 187 148 180 162 q 172 175 167 175 z"},")":{"x_min":0,"x_max":314,"ha":314,"o":"m 241 312 q 241 242 230 183 q 220 124 194 59 q 188 45 178 25 q 169 5 156 -14 q 143 -32 127 -45 q 111 -58 93 -58 q 80 -58 72 -49 q 65 -40 65 -28 q 65 -19 70 -6 q 74 6 80 20 q 86 33 92 46 q 98 58 102 67 q 149 183 149 313 q 149 362 142 410 q 134 458 120 505 q 113 528 104 552 q 94 575 85 596 q 76 616 70 632 q 64 648 64 657 q 64 671 76 679 q 87 687 99 687 q 119 687 136 670 q 153 652 166 628 q 180 604 190 579 q 200 554 205 539 q 241 430 241 312 z"},"&":{"x_min":0,"x_max":562,"ha":562,"o":"m 69 97 q 69 126 78 154 q 87 183 98 208 q 108 233 116 253 q 125 273 125 285 q 125 297 116 316 q 108 335 98 358 q 87 382 78 407 q 70 432 70 456 q 70 491 86 524 q 101 558 126 584 q 152 610 185 626 q 218 642 253 642 q 283 642 312 630 q 340 618 362 598 q 384 577 398 550 q 411 522 411 490 q 411 455 396 422 q 380 390 362 361 q 343 332 328 308 q 312 283 312 265 q 312 256 320 245 q 329 234 341 224 q 353 214 366 207 q 378 200 387 200 q 395 200 402 206 q 409 212 416 220 q 422 227 430 233 q 437 239 447 239 q 454 239 463 238 q 472 236 480 232 q 487 227 492 220 q 497 212 497 199 q 497 192 493 184 q 489 175 484 166 q 479 158 475 150 q 471 142 471 134 q 471 124 480 116 q 489 108 500 100 q 510 92 519 83 q 528 74 528 63 q 528 34 516 23 q 505 12 488 12 q 476 12 466 18 q 455 24 445 31 q 435 38 426 44 q 417 50 406 50 q 391 50 370 38 q 350 27 325 14 q 300 0 270 -12 q 240 -23 205 -23 q 148 -23 108 6 q 69 36 69 97 z m 169 458 q 169 448 173 429 q 177 410 184 392 q 192 374 204 360 q 215 347 231 347 q 245 347 261 364 q 277 380 290 402 q 304 425 312 448 q 321 472 321 486 q 321 515 298 534 q 275 552 248 552 q 232 552 218 543 q 204 534 193 520 q 182 507 176 490 q 169 473 169 458 z m 206 67 q 216 67 234 72 q 252 77 270 86 q 288 95 301 106 q 314 117 314 129 q 314 139 302 152 q 290 166 274 178 q 258 191 242 200 q 225 208 215 208 q 205 208 194 196 q 184 184 176 167 q 169 150 164 132 q 159 115 159 104 q 159 81 172 74 q 186 67 206 67 z"},"_":{"x_min":0,"x_max":418,"ha":418,"o":"m 248 -100 q 236 -100 209 -101 q 182 -102 154 -99 q 127 -96 106 -87 q 86 -78 86 -58 q 86 -40 95 -30 q 104 -21 118 -17 q 131 -13 147 -13 q 163 -13 176 -13 l 241 -13 q 258 -13 279 -12 q 300 -10 320 -14 q 339 -17 352 -28 q 365 -38 365 -62 q 365 -78 350 -86 q 336 -94 316 -97 q 297 -100 278 -100 q 258 -100 248 -100 z"},"v":{"x_min":0,"x_max":378,"ha":378,"o":"m 184 -8 q 157 -8 148 2 q 138 12 128 32 q 118 52 105 85 q 92 118 78 158 q 65 199 52 243 q 38 287 28 328 q 18 369 12 404 q 5 439 5 461 q 5 469 7 478 q 9 487 14 495 q 18 503 25 508 q 32 514 43 514 q 55 514 67 502 q 79 489 86 466 q 94 439 104 402 q 113 366 122 328 q 132 290 142 252 q 152 215 160 186 q 168 157 174 139 q 180 121 183 121 q 186 121 192 140 q 199 159 208 190 q 217 221 227 260 q 237 299 248 338 q 259 378 270 416 q 280 453 289 480 q 297 503 308 508 q 318 514 332 514 q 347 514 356 502 q 364 491 364 479 q 364 459 358 424 q 352 390 342 348 q 331 306 318 260 q 306 215 292 172 q 279 130 267 96 q 255 61 246 41 q 233 13 216 2 q 199 -8 184 -8 z"},"O":{"x_min":0,"x_max":482,"ha":482,"o":"m 18 306 q 18 363 28 412 q 38 462 56 500 q 74 537 98 560 q 122 584 150 590 q 166 593 181 602 q 196 610 211 619 q 226 628 242 634 q 259 641 279 641 q 321 641 356 613 q 391 585 416 540 q 440 494 454 438 q 467 381 467 324 q 467 267 457 208 q 447 149 422 100 q 397 52 354 22 q 310 -9 243 -9 q 176 -9 132 18 q 89 46 64 91 q 38 136 28 192 q 18 249 18 306 z m 188 298 q 169 298 161 319 q 153 340 150 366 q 148 391 148 412 q 148 433 145 433 q 137 433 132 402 q 126 372 126 308 q 126 276 130 235 q 135 194 148 158 q 162 121 186 96 q 209 71 247 71 q 285 71 307 98 q 329 125 340 164 q 352 202 356 244 q 359 287 359 317 q 359 347 354 388 q 350 428 340 464 q 330 501 314 526 q 299 552 277 552 q 261 552 252 537 q 244 522 240 500 q 237 478 237 452 q 237 418 240 388 q 243 359 243 349 q 243 331 231 314 q 219 298 188 298 z"},"(":{"x_min":0,"x_max":308,"ha":308,"o":"m 64 312 q 64 370 75 427 q 86 484 104 539 q 109 554 119 579 q 129 604 142 628 q 156 652 174 670 q 191 687 210 687 q 222 687 234 679 q 245 671 245 657 q 245 648 238 628 q 230 607 220 584 q 211 561 202 539 q 193 517 189 505 q 174 458 165 410 q 156 362 156 313 q 156 183 203 67 q 207 58 213 46 q 219 33 225 20 q 231 6 236 -6 q 240 -19 240 -28 q 240 -40 232 -49 q 225 -58 212 -58 q 194 -58 178 -45 q 162 -32 149 -14 q 136 5 126 25 q 117 45 111 59 q 86 124 75 183 q 64 242 64 312 z"},"C":{"x_min":0,"x_max":453,"ha":453,"o":"m 258 644 q 300 644 330 628 q 360 612 380 588 q 399 565 408 538 q 417 510 417 487 q 417 467 410 454 q 403 440 389 440 q 368 440 358 448 q 347 456 342 468 q 337 479 334 493 q 330 507 323 518 q 316 530 303 538 q 290 546 264 546 q 205 546 172 486 q 138 426 138 307 q 138 204 170 144 q 203 83 263 83 q 305 83 324 100 q 344 118 354 140 q 363 161 370 178 q 376 196 393 196 q 416 196 426 183 q 437 170 437 150 q 437 127 424 98 q 411 70 388 45 q 364 20 330 3 q 297 -14 256 -14 q 200 -14 156 10 q 111 34 80 78 q 50 122 34 183 q 17 244 17 319 q 17 394 34 454 q 51 514 82 556 q 113 598 158 621 q 203 644 258 644 z"},"W":{"x_min":0,"x_max":584,"ha":584,"o":"m 127 -10 q 86 -10 64 14 q 42 37 32 71 q 21 105 20 144 q 18 182 18 212 q 18 238 18 280 q 17 322 17 366 q 17 411 17 452 q 17 494 18 520 q 18 536 20 556 q 21 576 26 594 q 31 612 42 624 q 52 636 71 636 q 92 636 103 629 q 114 622 118 612 q 123 602 124 590 q 124 579 124 569 q 124 472 122 364 q 120 256 120 158 q 120 153 120 142 q 120 132 125 132 q 130 132 144 178 q 157 223 179 323 q 183 340 191 372 q 199 404 212 435 q 225 466 244 489 q 262 512 286 512 q 307 512 324 488 q 342 465 356 430 q 371 396 384 355 q 396 314 406 280 q 417 245 426 222 q 436 198 444 198 q 447 198 448 223 q 450 248 451 286 q 452 324 452 370 q 453 415 454 456 q 454 496 454 526 q 454 555 454 562 q 454 574 455 588 q 456 601 460 612 q 464 623 473 630 q 482 638 497 638 q 528 638 542 618 q 555 597 559 568 q 563 538 561 506 q 559 475 559 454 q 559 382 556 310 q 554 237 545 165 q 543 146 538 118 q 534 90 524 64 q 515 38 498 20 q 482 1 455 1 q 438 1 427 4 q 416 7 408 14 q 400 20 394 30 q 388 41 381 56 q 375 68 368 92 q 361 115 353 144 q 345 172 336 202 q 327 232 318 256 q 308 281 298 296 q 288 312 278 312 q 269 312 261 288 q 253 264 244 228 q 236 193 226 151 q 215 109 201 74 q 187 38 169 14 q 151 -10 127 -10 z"},"A":{"x_min":0,"x_max":451,"ha":451,"o":"m 14 29 q 14 39 20 70 q 26 100 36 142 q 45 185 56 233 q 68 281 79 326 q 90 370 100 404 q 109 439 113 455 q 125 495 136 528 q 147 562 160 586 q 173 611 188 624 q 203 638 222 638 q 240 638 258 618 q 275 597 292 566 q 308 534 322 496 q 337 457 348 420 q 360 384 368 354 q 376 325 379 311 q 384 290 394 254 q 404 217 414 177 q 423 137 430 99 q 438 61 438 37 q 438 23 434 12 q 429 0 412 0 q 376 0 360 20 q 343 41 332 70 q 325 89 318 109 q 312 129 302 145 q 291 161 274 171 q 258 181 231 181 q 195 181 174 170 q 152 159 140 142 q 127 126 121 106 q 115 85 110 65 q 103 38 91 18 q 79 -1 47 -1 q 31 -1 22 6 q 14 12 14 29 z m 222 459 q 211 459 202 435 q 194 411 188 380 q 182 350 179 322 q 176 295 176 288 q 176 271 191 262 q 206 253 222 253 q 231 253 240 254 q 249 254 256 257 q 264 260 269 266 q 274 273 274 286 q 274 295 270 323 q 266 351 259 382 q 252 412 242 436 q 233 459 222 459 z"},"f":{"x_min":0,"x_max":274,"ha":274,"o":"m 110 -12 q 80 -12 65 13 q 50 38 51 110 q 51 145 51 189 q 51 233 50 274 q 49 315 48 347 q 48 379 48 390 q 48 407 44 412 q 41 416 35 416 q 23 416 14 429 q 4 442 4 468 q 4 494 14 504 q 24 515 37 515 q 45 515 48 517 q 51 519 51 533 q 51 571 56 610 q 61 649 76 680 q 92 712 120 732 q 149 753 197 753 q 249 753 282 728 q 314 704 314 659 q 314 633 299 620 q 284 607 260 607 q 250 607 246 614 q 241 622 237 630 q 233 639 228 646 q 222 654 209 654 q 183 654 172 628 q 162 603 162 563 q 162 544 168 534 q 175 525 186 520 q 196 516 208 516 q 220 515 230 515 q 239 515 248 514 q 256 512 262 507 q 268 502 272 492 q 276 483 276 466 q 276 440 267 428 q 258 417 232 417 q 188 417 170 401 q 152 385 152 339 q 152 272 154 206 q 156 139 156 71 q 156 59 155 44 q 154 30 150 18 q 145 5 136 -4 q 127 -12 110 -12 z"},"Q":{"x_min":0,"x_max":498,"ha":498,"o":"m 18 306 q 18 363 28 412 q 38 462 56 500 q 74 537 98 560 q 122 584 150 590 q 166 593 181 602 q 196 610 211 619 q 226 628 242 634 q 259 641 279 641 q 321 641 356 613 q 391 585 416 540 q 440 494 454 438 q 467 381 467 324 q 467 287 460 244 q 454 201 443 162 q 432 123 418 92 q 403 62 387 49 q 383 46 383 41 q 383 37 386 33 q 388 29 392 23 q 403 6 416 -8 q 430 -21 439 -44 q 442 -51 436 -61 q 429 -71 418 -80 q 408 -89 396 -95 q 385 -101 377 -101 q 368 -101 356 -86 q 344 -70 332 -52 q 321 -34 312 -18 q 302 -3 296 -3 q 283 -3 270 -6 q 257 -9 243 -9 q 176 -9 132 18 q 89 46 64 91 q 38 136 28 192 q 18 249 18 306 z m 278 202 q 281 202 284 201 q 287 200 289 197 q 297 183 305 168 q 313 152 319 139 q 323 129 332 129 q 342 129 348 152 q 353 174 356 204 q 358 235 358 267 q 359 299 359 317 q 359 347 354 388 q 350 428 340 464 q 330 501 314 526 q 299 552 277 552 q 261 552 252 537 q 244 522 240 500 q 237 478 237 452 q 237 418 240 388 q 243 359 243 349 q 243 331 231 314 q 219 298 188 298 q 169 298 161 319 q 153 340 150 366 q 148 391 148 412 q 148 433 145 433 q 137 433 132 402 q 126 372 126 308 q 126 276 131 235 q 136 194 148 158 q 161 121 184 96 q 206 71 241 71 q 255 71 255 80 q 255 84 252 90 q 247 98 240 108 q 234 117 228 126 q 222 135 218 142 q 213 149 213 152 q 213 160 220 169 q 228 178 238 186 q 249 193 260 198 q 271 202 278 202 z"},"w":{"x_min":0,"x_max":579,"ha":579,"o":"m 163 0 q 141 0 122 29 q 103 58 87 103 q 71 148 58 202 q 45 257 36 309 q 27 361 22 404 q 18 447 18 468 q 18 482 26 498 q 33 514 51 514 q 64 514 78 510 q 93 505 99 483 q 105 463 110 434 q 116 404 122 372 q 127 339 132 306 q 138 273 144 247 q 151 221 158 205 q 164 189 171 189 q 175 189 180 200 q 184 210 188 226 q 192 241 196 260 q 200 278 203 294 q 206 311 208 324 q 209 336 210 339 q 212 353 216 382 q 220 410 228 438 q 236 467 250 488 q 263 509 284 509 q 305 509 320 484 q 335 459 346 422 q 357 385 366 341 q 374 297 381 260 q 388 223 395 198 q 402 173 411 173 q 421 173 430 204 q 440 235 450 280 q 460 326 470 377 q 479 428 489 468 q 495 492 510 503 q 524 514 536 514 q 546 514 552 509 q 558 504 562 496 q 565 489 566 480 q 567 471 567 464 q 567 438 564 410 q 560 381 554 352 q 548 322 541 294 q 534 266 528 242 q 525 229 520 206 q 514 182 507 154 q 500 126 490 97 q 481 68 468 44 q 456 21 440 6 q 425 -9 406 -9 q 382 -9 366 13 q 349 35 337 68 q 325 101 317 139 q 309 177 302 210 q 296 243 290 265 q 285 287 279 287 q 273 287 266 266 q 260 244 253 212 q 246 181 238 144 q 229 106 218 74 q 208 43 194 22 q 180 0 163 0 z"},"-":{"x_min":0,"x_max":411,"ha":411,"o":"m 339 315 q 339 291 315 280 q 291 268 259 263 q 227 258 195 258 q 163 258 147 258 q 135 258 122 258 q 109 259 98 262 q 87 266 80 274 q 73 282 73 297 q 73 321 84 332 q 94 344 117 349 q 140 354 176 354 q 213 354 265 354 q 277 354 290 354 q 303 353 314 350 q 325 346 332 338 q 339 330 339 315 z"},"E":{"x_min":0,"x_max":448,"ha":448,"o":"m 222 653 q 269 653 302 639 q 335 625 356 604 q 378 584 388 560 q 398 537 398 517 q 398 500 390 488 q 383 477 369 477 q 344 477 330 490 q 316 503 304 518 q 291 533 275 546 q 259 559 230 559 q 227 559 216 558 q 204 557 192 553 q 180 549 170 541 q 161 533 161 520 q 161 490 182 463 q 204 436 230 412 q 256 387 278 366 q 299 344 299 325 q 299 306 275 286 q 251 265 222 242 q 193 218 169 190 q 145 162 145 127 q 145 95 168 82 q 191 68 223 68 q 252 68 276 90 q 299 113 320 140 q 341 167 360 190 q 379 212 398 212 q 413 212 420 200 q 428 188 428 169 q 428 144 415 112 q 402 79 376 50 q 349 22 310 2 q 270 -18 216 -18 q 182 -18 148 -10 q 113 -2 85 16 q 57 33 40 62 q 22 90 22 130 q 22 174 46 204 q 71 235 100 256 q 129 278 154 294 q 178 311 178 326 q 178 341 158 358 q 137 375 112 398 q 87 421 66 452 q 46 484 46 528 q 46 566 65 590 q 84 614 111 628 q 138 642 168 648 q 199 653 222 653 z"},"s":{"x_min":0,"x_max":344,"ha":344,"o":"m 177 528 q 205 528 230 520 q 254 513 272 500 q 291 487 302 470 q 312 453 312 434 q 312 421 301 408 q 290 396 276 396 q 268 396 262 402 q 255 409 246 416 q 237 424 224 430 q 211 436 188 436 q 151 436 138 420 q 126 404 126 390 q 126 371 142 358 q 157 344 180 331 q 203 318 230 304 q 257 289 280 268 q 303 248 318 220 q 334 191 334 149 q 334 117 324 87 q 313 57 292 34 q 271 10 240 -4 q 209 -18 168 -18 q 137 -18 108 -7 q 79 4 57 21 q 35 38 22 60 q 9 81 9 102 q 9 117 20 133 q 32 149 49 149 q 58 149 69 138 q 80 128 94 115 q 109 102 128 92 q 146 81 169 81 q 197 81 216 100 q 234 118 234 142 q 234 165 218 180 q 202 194 178 206 q 154 219 126 232 q 98 245 74 263 q 50 281 34 308 q 18 334 18 373 q 18 405 30 434 q 41 462 62 483 q 82 504 112 516 q 141 528 177 528 z"},">":{"x_min":0,"x_max":459,"ha":459,"o":"m 396 262 q 396 247 385 236 q 380 231 354 214 q 329 198 298 179 q 267 160 240 144 q 212 127 203 122 q 189 113 168 102 q 147 92 130 92 q 113 92 107 105 q 101 118 101 132 q 101 153 122 170 q 143 187 168 203 q 194 219 215 235 q 236 251 236 269 q 236 286 214 300 q 192 315 166 329 q 140 343 118 358 q 96 373 96 391 q 96 408 108 420 q 121 431 138 431 q 152 431 176 422 q 201 414 230 400 q 258 387 288 369 q 317 351 341 332 q 365 314 380 296 q 396 277 396 262 z"},"l":{"x_min":0,"x_max":161,"ha":161,"o":"m 31 418 q 31 474 30 528 q 30 583 31 639 q 31 655 32 671 q 33 687 38 700 q 43 712 54 720 q 65 728 87 728 q 101 728 109 721 q 117 714 121 704 q 125 693 126 681 q 127 669 127 658 l 127 528 l 126 270 l 126 140 q 126 112 130 102 q 134 92 140 86 q 145 81 149 74 q 153 68 153 48 q 153 33 147 16 q 141 0 122 0 q 70 0 50 28 q 31 56 31 103 z"},"8":{"x_min":0,"x_max":2103,"ha":2103,"o":"m 47 319 q 47 398 64 447 q 80 496 110 523 q 141 550 184 560 q 226 569 278 569 q 330 569 372 560 q 415 550 445 523 q 475 496 492 447 q 508 398 508 319 q 508 240 492 191 q 475 142 445 114 q 415 87 372 78 q 330 68 278 68 q 226 68 184 78 q 141 87 110 114 q 80 142 64 191 q 47 240 47 319 z m 79 319 q 79 246 92 202 q 106 157 132 132 q 158 108 195 100 q 232 92 278 92 q 324 92 361 100 q 398 108 424 132 q 449 157 462 202 q 476 246 476 319 q 476 392 462 436 q 449 481 424 505 q 398 529 361 537 q 324 545 278 545 q 232 545 195 537 q 158 529 132 504 q 106 480 92 436 q 79 391 79 319 z m 2007 318 q 2007 238 1962 192 q 1917 146 1837 146 q 1757 146 1712 192 q 1667 238 1667 318 q 1667 398 1712 444 q 1757 490 1837 490 q 1917 490 1962 444 q 2007 397 2007 318 z m 293 256 l 293 298 q 293 301 291 303 l 187 409 l 187 208 q 187 191 193 191 l 137 191 q 143 191 143 208 l 143 453 q 143 468 137 470 l 193 470 q 191 470 191 468 q 191 463 193 456 q 195 449 203 441 l 290 353 q 293 350 293 353 l 293 469 q 293 485 287 486 l 346 486 q 344 486 340 481 q 337 476 337 469 l 337 256 z m 218 469 q 218 484 212 486 l 268 486 q 265 486 264 481 q 262 476 262 469 l 262 389 l 218 433 z m 880 317 q 880 257 846 214 q 811 170 753 158 q 736 154 718 154 q 701 153 684 153 l 568 153 l 568 483 l 687 483 q 728 483 763 474 q 798 465 824 445 q 850 425 865 394 q 880 362 880 317 z m 945 153 l 945 483 l 1184 483 l 1184 419 l 1030 419 l 1030 362 l 1173 362 l 1173 299 l 1030 299 l 1030 217 l 1184 217 l 1184 153 z m 1517 153 l 1517 374 l 1456 230 l 1397 230 l 1335 374 l 1335 153 l 1255 153 l 1255 483 l 1354 483 l 1428 317 l 1503 483 l 1602 483 l 1602 153 z m 212 151 q 214 151 216 156 q 218 161 218 168 l 218 370 l 262 325 l 262 260 q 262 251 268 251 l 361 251 q 368 251 368 260 l 368 441 q 368 448 366 453 q 365 458 362 458 l 418 458 q 416 458 414 453 q 412 448 412 441 l 412 184 q 412 167 418 167 l 362 167 q 368 167 368 184 l 368 211 q 368 217 366 218 q 365 220 361 220 l 268 220 q 265 220 264 218 q 262 217 262 211 l 262 168 q 262 161 264 156 q 265 151 268 151 z m 1837 208 q 1860 208 1876 218 q 1892 228 1902 244 q 1911 259 1915 279 q 1919 299 1919 318 q 1919 338 1915 358 q 1911 377 1902 392 q 1892 408 1876 418 q 1860 428 1837 428 q 1814 428 1798 418 q 1782 408 1772 392 q 1763 377 1759 358 q 1755 338 1755 318 q 1755 299 1759 279 q 1763 259 1772 244 q 1782 228 1798 218 q 1814 208 1837 208 z m 792 319 q 792 348 784 368 q 775 387 760 399 q 745 411 723 416 q 701 421 674 421 l 653 421 l 653 215 l 674 215 q 729 215 760 237 q 792 259 792 319 z m 337 215 l 337 184 q 337 177 339 172 q 341 167 343 167 l 287 167 q 293 169 293 184 l 293 215 z"},"\\":{"x_min":0,"x_max":434,"ha":434,"o":"m 403 4 q 403 -2 398 -6 q 393 -11 386 -14 q 379 -18 370 -20 q 362 -22 355 -22 q 345 -22 328 0 q 312 22 293 56 q 274 91 254 132 q 234 172 217 209 q 200 246 188 274 q 176 302 172 310 q 165 325 152 352 q 140 378 125 410 q 110 443 94 478 q 79 514 66 545 q 53 576 45 600 q 37 624 37 635 q 37 659 50 670 q 63 682 83 682 q 92 682 108 660 q 123 639 142 606 q 161 572 181 532 q 201 492 218 456 q 236 419 249 392 q 262 364 266 354 q 274 337 287 310 q 300 282 316 250 q 331 217 346 182 q 362 146 374 112 q 387 79 395 51 q 403 23 403 4 z"},"e":{"x_min":0,"x_max":375,"ha":375,"o":"m 201 -16 q 152 -16 117 6 q 82 27 60 61 q 39 95 29 138 q 19 180 19 222 q 19 287 30 342 q 41 397 63 438 q 85 479 120 502 q 154 525 200 525 q 238 525 266 505 q 293 485 312 454 q 331 424 340 388 q 349 353 349 322 q 349 317 349 308 q 349 299 348 294 q 347 282 330 274 q 313 265 288 258 q 264 251 236 244 q 208 236 184 225 q 160 214 144 198 q 128 182 128 158 q 128 145 134 132 q 140 118 150 107 q 159 96 172 90 q 185 83 200 83 q 218 83 228 90 q 239 98 246 109 q 254 120 259 134 q 264 147 270 158 q 275 169 284 176 q 292 184 306 184 q 328 184 340 167 q 351 150 351 130 q 351 104 338 79 q 326 54 311 34 q 291 8 262 -4 q 233 -16 201 -16 z m 200 424 q 189 424 178 417 q 168 410 160 400 q 151 389 146 376 q 141 363 141 351 q 141 331 150 326 q 158 321 172 321 q 181 321 194 324 q 206 326 218 332 q 229 337 236 346 q 244 354 244 366 q 244 374 242 384 q 239 394 234 403 q 228 412 220 418 q 211 424 200 424 z"},"b":{"x_min":0,"x_max":414,"ha":414,"o":"m 28 446 q 29 497 28 547 q 28 597 30 648 q 31 664 31 678 q 31 693 34 704 q 38 715 48 722 q 59 728 81 728 q 100 728 110 720 q 120 713 124 702 q 129 691 130 677 q 130 663 130 650 q 130 646 130 635 q 129 624 129 610 q 129 595 128 578 q 128 562 128 546 q 128 478 138 478 q 143 478 151 484 q 159 491 170 499 q 182 507 198 514 q 215 520 237 520 q 323 520 359 454 q 395 388 395 263 q 395 200 385 150 q 375 99 354 64 q 333 28 300 9 q 268 -10 224 -10 q 200 -10 183 -1 q 166 8 154 20 q 142 31 134 40 q 127 49 122 49 q 117 49 114 40 q 112 31 107 20 q 102 8 93 -1 q 84 -10 66 -10 q 49 -10 40 2 q 32 14 29 32 q 26 50 26 70 q 26 91 26 108 l 26 195 z m 216 418 q 190 418 173 402 q 156 385 146 361 q 136 337 132 310 q 128 284 128 264 l 129 247 q 129 227 134 200 q 139 172 150 148 q 162 123 180 106 q 198 88 223 88 q 246 88 260 110 q 275 131 283 160 q 291 188 294 218 q 297 247 297 263 q 297 281 294 308 q 290 334 281 358 q 272 383 256 400 q 241 418 216 418 z"},"%":{"x_min":0,"x_max":764,"ha":764,"o":"m 37 451 q 37 487 48 522 q 58 558 79 586 q 100 614 131 632 q 162 649 202 649 q 237 649 263 636 q 289 622 306 600 q 323 577 331 548 q 339 518 339 486 q 339 451 330 414 q 320 377 300 347 q 280 317 250 298 q 221 279 180 279 q 144 279 118 294 q 91 309 73 333 q 55 357 46 388 q 37 419 37 451 z m 159 25 q 159 37 175 70 q 191 103 218 149 q 244 195 278 249 q 313 303 350 358 q 386 412 422 463 q 458 514 488 554 q 519 593 541 616 q 563 640 571 640 q 594 640 602 631 q 610 622 610 596 q 610 589 597 566 q 584 543 564 512 q 544 482 520 446 q 495 411 472 378 q 450 346 432 321 q 414 296 407 285 q 402 277 386 252 q 370 226 348 192 q 327 159 303 122 q 279 85 258 54 q 237 23 221 2 q 205 -18 201 -18 q 184 -18 172 -6 q 159 5 159 25 z m 203 565 q 181 565 166 554 q 150 542 140 524 q 130 506 126 486 q 121 465 121 447 q 121 434 124 419 q 127 404 134 392 q 140 379 151 371 q 162 363 178 363 q 200 363 215 376 q 230 390 239 410 q 248 430 252 452 q 255 474 255 491 q 255 504 253 518 q 251 531 245 542 q 239 552 229 558 q 219 565 203 565 z m 416 156 q 416 192 426 228 q 437 263 458 291 q 479 319 510 336 q 541 354 581 354 q 616 354 642 340 q 668 327 685 304 q 702 282 710 252 q 718 223 718 191 q 718 156 708 119 q 699 82 679 52 q 659 22 630 3 q 600 -16 559 -16 q 523 -16 496 -1 q 470 14 452 38 q 434 62 425 93 q 416 124 416 156 z m 582 270 q 560 270 544 258 q 529 247 519 229 q 509 211 504 190 q 500 170 500 152 q 500 139 503 124 q 506 109 512 96 q 519 84 530 76 q 541 68 557 68 q 579 68 594 82 q 609 95 618 115 q 627 135 630 157 q 634 179 634 196 q 634 209 632 222 q 630 236 624 246 q 618 257 608 264 q 598 270 582 270 z"},"m":{"x_min":0,"x_max":606,"ha":606,"o":"m 82 0 q 63 0 52 6 q 41 11 36 20 q 30 30 28 42 q 27 55 27 68 q 27 84 27 115 q 27 146 26 183 q 26 220 26 260 q 25 300 24 334 q 24 369 24 395 q 24 421 24 430 q 24 441 24 456 q 24 470 28 484 q 32 497 42 506 q 53 515 73 515 q 88 515 96 508 q 104 500 108 492 q 113 483 116 476 q 120 468 126 468 q 131 468 138 476 q 144 484 154 494 q 165 504 182 512 q 198 520 222 520 q 247 520 264 511 q 281 502 292 492 q 304 481 312 472 q 321 463 330 463 q 339 463 349 472 q 359 481 374 492 q 388 502 407 511 q 426 520 453 520 q 500 520 526 496 q 551 471 563 432 q 575 393 578 344 q 580 295 580 246 l 580 209 l 581 127 l 581 90 q 581 77 581 61 q 581 45 577 32 q 573 18 564 9 q 554 0 535 0 q 513 0 502 10 q 492 19 488 34 q 483 48 483 65 q 483 82 483 97 q 483 112 482 132 q 482 151 482 172 q 482 192 482 212 q 482 231 482 246 q 482 291 481 323 q 480 355 474 375 q 468 395 456 404 q 445 413 424 413 q 399 413 386 392 q 372 370 366 342 q 361 313 360 284 q 360 254 360 237 l 360 200 l 358 118 l 358 81 q 358 68 358 54 q 358 39 354 27 q 350 15 340 8 q 331 0 312 0 q 290 0 280 11 q 269 22 264 38 q 260 55 260 74 q 260 92 260 107 q 260 122 260 140 q 260 158 260 176 q 261 195 262 213 q 262 231 262 246 q 262 263 262 291 q 261 319 256 346 q 251 373 238 393 q 225 413 199 413 q 176 413 162 396 q 147 379 139 356 q 131 333 128 308 q 126 283 126 266 l 126 62 q 126 33 120 16 q 114 0 82 0 z"},"#":{"x_min":0,"x_max":713,"ha":713,"o":"m 169 138 q 169 157 160 165 q 152 173 140 175 q 128 177 114 176 q 100 176 88 178 q 76 181 68 190 q 59 198 59 218 q 59 244 74 250 q 89 257 109 257 q 116 257 123 256 q 130 256 137 256 q 155 256 168 260 q 180 263 188 272 q 195 282 198 299 q 201 316 201 343 q 201 360 193 367 q 185 374 174 376 q 163 378 150 378 q 137 377 126 380 q 115 382 108 390 q 100 399 100 419 q 100 433 104 440 q 109 447 116 451 q 124 455 134 456 q 144 456 155 456 q 179 456 193 462 q 207 469 215 480 q 223 492 227 508 q 231 525 235 545 q 237 554 240 566 q 242 578 246 588 q 251 599 258 606 q 266 614 278 614 q 295 614 307 607 q 319 600 319 580 q 320 559 315 538 q 310 516 311 481 q 311 464 328 460 q 346 456 369 456 q 399 456 416 468 q 433 480 442 498 q 451 517 455 538 q 459 559 463 578 q 467 596 474 608 q 481 620 496 620 q 513 620 528 610 q 543 600 543 581 q 544 558 538 534 q 531 511 531 488 q 531 473 536 466 q 542 459 550 456 q 559 454 570 454 q 581 455 591 455 q 607 455 619 448 q 631 442 632 415 q 632 388 616 382 q 601 377 576 377 l 562 377 q 523 377 506 356 q 488 334 489 288 q 490 271 498 264 q 507 258 520 256 q 533 255 548 256 q 562 256 575 253 q 588 250 596 242 q 605 234 605 214 q 605 201 600 194 q 596 187 588 183 q 580 179 570 178 q 561 177 551 177 l 536 177 q 513 177 499 175 q 485 173 476 166 q 467 159 462 146 q 457 132 452 109 q 450 100 447 84 q 444 68 438 53 q 433 38 424 27 q 416 16 404 16 q 387 16 374 24 q 362 32 361 53 q 361 75 366 96 q 372 116 371 138 q 371 151 370 158 q 368 166 363 170 q 358 174 348 176 q 339 177 322 177 q 303 177 291 174 q 279 170 272 164 q 264 157 260 148 q 257 139 255 129 q 250 107 247 86 q 244 64 240 47 q 235 30 228 20 q 220 9 206 9 q 187 9 174 21 q 161 33 160 54 q 160 76 165 96 q 170 116 169 138 z m 355 377 q 312 377 294 359 q 276 341 278 293 q 278 280 284 272 q 289 265 297 261 q 305 257 315 256 q 325 256 335 256 q 377 256 396 276 q 414 297 413 343 q 413 356 407 363 q 401 370 393 373 q 385 376 374 376 q 364 377 355 377 z"},",":{"x_min":0,"x_max":220,"ha":220,"o":"m 49 36 q 49 62 66 78 q 83 94 109 94 q 135 94 152 79 q 169 64 169 37 q 169 24 161 2 q 153 -19 141 -39 q 129 -59 114 -74 q 99 -88 84 -88 q 78 -88 72 -84 q 65 -80 65 -74 q 65 -68 71 -60 q 77 -51 84 -42 q 90 -33 96 -24 q 102 -15 102 -6 q 99 -10 94 -10 q 89 -11 85 -11 q 66 -11 58 4 q 49 19 49 36 z"},"n":{"x_min":0,"x_max":405,"ha":405,"o":"m 125 60 q 125 46 125 35 q 125 24 122 16 q 118 9 110 5 q 102 1 86 1 q 64 1 52 9 q 40 17 34 30 q 29 42 28 57 q 27 72 26 85 q 26 94 26 120 q 25 147 24 182 q 24 218 24 258 q 24 298 24 334 q 23 369 23 396 q 23 422 23 431 q 23 442 23 456 q 23 471 28 484 q 32 498 42 507 q 52 516 72 516 q 92 516 100 510 q 108 503 112 494 q 115 486 117 480 q 119 473 126 473 q 133 473 142 480 q 151 488 164 496 q 177 505 196 512 q 214 520 241 520 q 284 520 312 503 q 339 486 354 455 q 370 424 376 380 q 382 337 382 284 q 382 244 382 200 q 382 156 381 108 q 381 95 381 76 q 381 58 377 41 q 373 24 364 12 q 354 0 335 0 q 313 0 302 14 q 292 29 288 50 q 283 70 283 92 q 283 114 283 129 q 282 158 282 188 q 281 217 281 246 q 281 263 280 292 q 280 320 274 347 q 269 374 256 394 q 243 413 217 413 q 166 413 146 372 q 125 330 125 258 z"},"h":{"x_min":0,"x_max":392,"ha":392,"o":"m 211 413 q 180 413 162 393 q 145 373 136 344 q 127 316 125 285 q 123 254 123 232 l 125 157 l 125 121 q 125 105 126 84 q 127 63 123 44 q 119 26 108 14 q 97 1 73 1 q 53 1 43 16 q 33 32 30 52 q 26 73 26 94 q 26 116 26 129 q 25 156 24 207 q 23 258 22 314 q 21 369 20 420 q 20 471 20 498 q 20 527 20 556 q 21 585 22 614 q 22 630 23 650 q 24 669 29 686 q 34 704 45 716 q 56 728 78 728 q 97 728 106 718 q 115 708 118 693 q 122 678 122 661 q 122 644 122 631 q 122 623 121 598 q 120 574 120 548 q 120 521 123 500 q 126 479 134 479 q 141 479 150 486 q 158 492 170 500 q 182 507 198 514 q 214 520 236 520 q 283 520 310 492 q 337 464 351 422 q 365 381 369 333 q 373 285 373 246 l 373 212 l 375 143 l 375 108 q 375 95 374 76 q 374 58 370 40 q 365 23 354 11 q 344 -1 325 -1 q 303 -1 293 14 q 283 28 280 49 q 276 70 276 92 q 277 114 277 129 q 276 158 276 188 q 275 217 275 246 q 275 263 274 292 q 274 320 268 347 q 263 374 250 394 q 237 413 211 413 z"},"z":{"x_min":0,"x_max":328,"ha":328,"o":"m 16 40 q 16 49 28 78 q 41 106 60 144 q 79 181 102 224 q 124 266 143 304 q 162 341 174 368 q 187 396 187 404 q 187 427 178 432 q 169 438 142 438 q 127 438 106 436 q 86 435 68 438 q 50 440 38 448 q 25 456 25 474 q 25 492 32 500 q 39 509 50 512 q 60 515 72 514 q 85 514 96 514 l 261 514 q 283 514 298 500 q 313 486 313 474 q 313 461 302 432 q 290 404 273 368 q 256 332 236 292 q 217 253 200 217 q 183 181 172 154 q 160 126 160 114 q 160 97 168 92 q 177 88 191 88 l 280 88 q 301 88 312 75 q 322 62 322 40 q 322 28 314 14 q 307 0 290 0 l 164 0 q 153 0 128 -1 q 104 -2 79 1 q 54 4 35 12 q 16 21 16 40 z"},"B":{"x_min":0,"x_max":450,"ha":450,"o":"m 219 -18 q 154 -18 116 -6 q 78 6 55 24 q 49 29 44 40 q 40 50 37 76 q 34 102 33 148 q 32 195 33 271 q 34 349 32 426 q 31 502 31 579 q 31 594 35 604 q 39 614 48 620 q 58 627 75 631 q 92 635 117 639 q 138 642 160 645 q 181 648 204 648 q 246 648 281 638 q 316 627 342 608 q 367 588 381 562 q 395 536 395 504 q 395 454 365 410 q 351 390 344 378 q 337 367 337 357 q 337 344 351 329 q 365 314 393 279 q 413 254 420 232 q 428 210 428 178 q 428 151 412 117 q 396 83 368 53 q 340 23 302 2 q 264 -18 219 -18 z m 204 549 q 182 549 169 542 q 156 536 149 524 q 142 512 140 496 q 139 480 139 461 q 139 450 142 438 q 146 426 152 416 q 159 406 169 400 q 179 393 192 393 q 209 393 226 401 q 242 409 256 422 q 269 434 277 450 q 285 467 285 484 q 285 521 260 535 q 236 549 204 549 z m 131 195 q 131 174 134 152 q 137 131 146 114 q 155 96 171 85 q 187 74 214 74 q 234 74 254 85 q 274 96 290 113 q 306 130 316 152 q 325 174 325 196 q 325 214 318 231 q 312 248 298 262 q 284 276 262 284 q 239 293 207 293 q 176 293 154 272 q 131 251 131 195 z"},"K":{"x_min":0,"x_max":407,"ha":407,"o":"m 30 352 q 30 391 31 430 q 32 469 34 508 q 35 525 36 546 q 38 568 44 587 q 51 606 64 618 q 76 631 100 631 q 116 631 125 626 q 134 621 138 612 q 143 603 144 592 q 145 580 145 566 l 145 545 l 142 503 l 142 482 q 142 479 142 470 q 142 460 144 450 q 145 440 148 432 q 151 425 157 425 q 166 425 178 441 q 191 457 206 480 q 220 504 236 532 q 251 559 268 582 q 284 606 300 622 q 317 638 332 638 q 375 638 374 586 q 374 573 362 552 q 351 530 334 504 q 317 478 298 450 q 278 422 262 396 q 245 369 234 346 q 223 324 223 310 q 223 296 236 274 q 249 252 268 226 q 287 200 310 172 q 333 143 352 116 q 371 90 384 67 q 397 44 397 29 q 397 15 386 5 q 374 -5 354 -5 q 334 -5 314 11 q 294 27 275 51 q 256 75 239 102 q 222 130 207 154 q 192 178 180 194 q 168 210 159 210 q 153 210 150 200 q 147 190 146 177 q 144 164 144 152 q 143 140 143 136 q 143 122 144 106 q 146 89 146 72 q 146 58 144 45 q 142 32 136 22 q 131 13 122 7 q 112 1 96 1 q 71 1 58 20 q 45 39 40 65 q 34 91 34 118 q 33 146 33 163 q 30 258 30 352 z"},"R":{"x_min":0,"x_max":416,"ha":416,"o":"m 32 241 q 32 292 32 342 q 33 392 33 443 q 33 466 34 500 q 34 535 40 568 q 47 600 64 623 q 80 646 113 646 q 130 646 152 646 q 173 647 196 647 q 287 647 342 596 q 397 545 397 452 q 397 402 380 364 q 362 325 342 298 q 321 270 304 252 q 286 234 286 225 q 286 219 295 205 q 304 191 317 172 q 330 154 346 133 q 361 112 374 92 q 387 73 396 56 q 405 39 405 28 q 405 15 390 6 q 376 -2 358 -2 q 340 -2 323 12 q 306 26 290 47 q 275 68 260 92 q 246 116 234 137 q 221 158 210 172 q 199 186 191 186 l 156 186 q 151 186 148 178 q 146 169 144 154 q 143 140 142 120 q 142 101 142 79 q 142 62 141 48 q 140 33 135 22 q 130 12 118 6 q 107 0 87 0 q 64 0 52 12 q 41 24 36 42 q 32 60 32 80 q 32 101 32 117 z m 196 556 q 189 556 182 556 q 176 555 169 554 q 157 553 151 543 q 145 533 142 520 q 140 506 140 492 q 141 479 141 470 l 141 430 l 140 351 l 140 311 q 140 299 148 291 q 156 283 168 283 q 193 283 216 302 q 239 322 257 350 q 275 378 286 409 q 297 440 297 462 q 297 509 269 532 q 241 556 196 556 z"},"T":{"x_min":0,"x_max":390,"ha":390,"o":"m 11 583 q 11 604 20 615 q 29 626 42 631 q 56 636 73 637 q 90 638 105 638 l 298 638 q 312 638 326 637 q 341 636 352 630 q 364 625 371 615 q 378 605 378 587 q 378 563 372 552 q 365 542 354 538 q 343 534 329 535 q 315 536 301 536 q 289 536 280 532 q 270 528 264 516 q 257 505 253 484 q 249 464 249 432 q 249 399 248 366 q 247 332 246 299 l 244 211 q 243 178 242 144 q 241 111 241 78 q 241 63 240 48 q 240 33 236 20 q 231 8 221 0 q 211 -8 191 -8 q 167 -8 154 4 q 142 16 136 34 q 131 52 131 73 q 131 94 131 112 q 131 203 136 292 q 141 381 141 472 q 141 492 138 504 q 136 516 130 523 q 123 530 112 532 q 100 535 83 535 q 68 535 54 535 q 41 535 32 540 q 22 544 16 554 q 11 564 11 583 z"},"P":{"x_min":0,"x_max":394,"ha":394,"o":"m 34 139 l 34 220 l 31 399 l 31 480 q 31 510 30 538 q 29 566 34 588 q 40 611 56 626 q 71 640 103 642 q 122 644 142 644 q 163 643 182 643 q 280 643 330 586 q 381 530 381 424 q 381 372 368 327 q 356 282 332 249 q 308 216 272 197 q 237 178 192 178 q 160 178 148 171 q 136 164 135 146 q 135 129 134 115 q 134 101 134 88 q 134 61 132 44 q 129 27 123 18 q 117 8 106 4 q 95 1 78 1 q 54 1 44 22 q 34 43 34 75 z m 190 556 q 185 556 179 556 q 173 556 162 554 q 144 552 142 536 q 141 520 141 480 q 141 467 142 446 q 142 425 142 400 q 142 375 142 350 q 143 325 143 304 q 143 281 156 274 q 169 268 177 268 q 208 268 228 286 q 247 303 258 328 q 268 353 272 380 q 275 408 275 427 q 275 453 271 476 q 267 500 258 518 q 248 535 232 546 q 215 556 190 556 z"},"|":{"x_min":0,"x_max":226,"ha":226,"o":"m 117 -88 q 96 -88 86 -72 q 75 -56 70 -34 q 66 -12 66 12 q 65 35 65 50 q 65 58 65 87 q 65 116 65 159 q 65 202 65 254 q 65 306 65 360 q 65 415 65 467 q 65 519 65 562 q 65 605 65 634 q 65 663 65 671 q 65 692 76 709 q 86 726 114 726 q 128 726 136 716 q 145 705 150 688 q 155 671 156 650 q 158 629 158 609 q 159 589 158 572 q 158 554 158 544 q 158 534 158 494 q 159 455 160 402 q 160 349 160 288 q 161 227 162 174 q 162 121 162 82 q 163 42 163 32 q 163 22 162 2 q 162 -19 158 -38 q 154 -58 144 -73 q 135 -88 117 -88 z"},"t":{"x_min":0,"x_max":304,"ha":304,"o":"m 138 655 q 149 655 150 646 q 152 636 152 628 l 152 616 l 150 591 l 150 579 q 150 561 150 548 q 150 535 153 527 q 156 519 164 516 q 171 512 186 512 q 200 512 214 514 q 227 515 238 512 q 249 510 256 502 q 263 494 263 475 q 263 449 253 439 q 243 429 216 429 l 168 429 q 154 429 152 396 q 150 363 150 308 l 150 282 l 149 231 l 149 205 q 149 192 150 172 q 150 151 154 132 q 159 112 170 98 q 180 85 200 85 q 214 85 225 90 q 236 96 245 102 q 254 108 262 114 q 271 119 279 119 q 290 119 292 108 q 293 98 293 90 q 293 68 282 49 q 270 30 252 16 q 234 3 212 -4 q 191 -12 170 -12 q 134 -12 111 9 q 88 30 76 64 q 63 97 58 139 q 53 181 52 223 q 51 265 52 303 q 54 341 54 367 q 54 401 52 413 q 51 425 37 425 q 32 425 26 426 q 21 427 16 432 q 12 437 9 446 q 6 456 6 473 q 6 489 9 498 q 12 506 18 510 q 23 513 29 514 q 35 514 41 514 q 57 514 60 522 q 62 529 62 554 q 62 558 62 565 q 62 572 62 580 q 61 587 61 594 q 61 602 61 606 q 61 618 68 628 q 76 637 88 643 q 99 649 112 652 q 126 655 138 655 z"},"M":{"x_min":0,"x_max":556,"ha":556,"o":"m 29 277 q 29 325 30 372 q 30 420 31 468 q 32 502 34 532 q 36 563 42 586 q 48 610 60 624 q 71 637 91 637 q 117 637 137 612 q 157 588 174 552 q 190 515 203 472 q 216 430 228 394 q 241 357 252 332 q 264 308 276 308 q 291 308 304 332 q 317 357 330 394 q 344 430 358 473 q 372 516 388 552 q 403 589 422 614 q 440 638 462 638 q 491 638 506 622 q 522 605 522 573 l 522 501 q 522 466 521 417 q 520 368 520 316 q 519 265 518 216 q 517 167 517 132 q 517 113 517 90 q 517 67 512 47 q 507 27 495 14 q 483 0 459 0 q 444 0 436 8 q 427 17 423 29 q 419 41 418 54 q 417 68 417 79 q 417 130 419 180 q 421 231 421 282 q 421 305 418 318 q 415 330 407 330 q 400 330 392 316 q 384 303 374 282 q 365 262 354 238 q 344 214 331 194 q 318 173 303 160 q 288 146 270 146 q 248 146 232 160 q 216 173 204 193 q 192 213 184 236 q 175 259 168 279 q 162 299 156 312 q 151 326 145 326 q 139 326 135 300 q 133 280 132 254 q 132 227 132 200 q 132 183 134 150 q 136 116 133 83 q 130 50 119 26 q 108 1 83 1 q 60 1 49 16 q 38 31 34 52 q 30 73 30 96 q 30 119 30 134 q 29 170 29 206 q 29 241 29 277 z"},"g":{"x_min":0,"x_max":429,"ha":429,"o":"m 197 520 q 232 520 252 512 q 271 504 282 494 q 293 484 298 476 q 302 468 307 468 q 312 468 314 476 q 315 483 318 492 q 322 502 332 510 q 341 517 361 517 q 379 517 388 494 q 397 470 401 439 q 405 408 406 378 q 406 347 406 333 l 406 92 q 406 20 402 -48 q 398 -117 380 -170 q 363 -224 326 -256 q 290 -288 224 -288 q 190 -288 164 -274 q 138 -260 120 -237 q 102 -214 92 -184 q 83 -155 83 -124 q 83 -115 86 -106 q 88 -96 92 -88 q 97 -80 105 -74 q 113 -69 123 -69 q 142 -69 152 -72 q 163 -76 168 -84 q 174 -93 176 -106 q 177 -118 177 -136 q 177 -157 188 -178 q 200 -200 225 -200 q 259 -200 276 -176 q 294 -152 302 -120 q 309 -87 310 -54 q 310 -20 310 0 q 310 7 308 18 q 305 29 298 29 q 294 29 286 22 q 277 14 264 6 q 252 -3 235 -10 q 218 -18 195 -18 q 140 -18 106 6 q 72 31 52 70 q 33 109 26 158 q 19 208 19 259 q 19 310 29 357 q 39 404 61 440 q 83 476 116 498 q 150 520 197 520 z m 202 77 q 227 77 246 96 q 265 115 278 142 q 291 169 298 198 q 304 227 304 247 l 305 264 q 305 285 300 310 q 295 336 284 359 q 273 382 255 398 q 237 413 211 413 q 186 413 168 398 q 151 384 140 360 q 128 337 122 307 q 117 277 117 246 q 117 215 122 184 q 126 154 136 130 q 146 106 162 92 q 178 77 202 77 z"},"j":{"x_min":0,"x_max":177,"ha":177,"o":"m 34 636 q 34 661 50 680 q 66 700 92 700 q 118 700 135 680 q 152 661 152 636 q 152 611 135 592 q 118 572 92 572 q 66 572 50 592 q 34 611 34 636 z m 14 -288 q -10 -288 -28 -277 q -45 -266 -56 -252 q -67 -237 -72 -222 q -77 -207 -77 -199 q -77 -187 -70 -175 q -62 -163 -45 -163 q -37 -163 -30 -166 q -23 -170 -16 -174 q -9 -179 -2 -182 q 5 -186 13 -186 q 25 -186 32 -170 q 39 -153 42 -131 q 46 -109 46 -86 q 47 -63 47 -51 q 47 -26 46 12 q 46 51 45 96 q 44 142 44 190 q 43 239 42 284 q 41 330 40 368 q 40 407 40 432 q 40 444 41 458 q 42 472 46 485 q 51 498 62 506 q 72 515 90 515 q 125 515 133 497 q 141 479 141 451 q 141 391 142 338 q 142 284 143 227 q 144 170 144 104 q 145 39 145 -45 q 145 -95 139 -139 q 133 -183 118 -216 q 103 -249 78 -268 q 53 -288 14 -288 z"},"i":{"x_min":0,"x_max":170,"ha":170,"o":"m 29 638 q 29 663 45 683 q 61 703 88 703 q 114 703 130 683 q 147 663 147 638 q 147 613 130 594 q 114 574 88 574 q 62 574 46 594 q 29 613 29 638 z m 96 1 q 74 1 62 12 q 50 24 44 40 q 39 57 38 75 q 37 93 36 106 q 35 119 34 156 q 34 194 34 240 q 33 286 33 333 q 33 380 33 411 q 33 427 34 445 q 35 463 40 478 q 46 494 57 504 q 68 514 88 514 q 117 514 127 501 q 137 488 137 459 l 137 370 l 136 171 l 136 82 q 136 71 136 57 q 135 43 132 30 q 128 18 120 10 q 111 1 96 1 z"},"y":{"x_min":0,"x_max":393,"ha":393,"o":"m 155 -7 q 125 -7 104 7 q 82 21 67 44 q 52 67 44 96 q 35 125 30 155 q 26 185 24 213 q 23 241 23 262 l 23 303 l 21 397 l 21 438 q 21 451 21 464 q 21 478 25 489 q 29 500 38 507 q 48 514 67 514 q 89 514 100 505 q 110 496 114 482 q 119 468 119 452 q 119 435 119 420 q 119 408 120 391 q 120 374 120 356 q 121 339 121 322 q 121 305 121 293 q 121 280 120 258 q 118 236 118 210 q 118 190 120 170 q 122 151 128 136 q 133 120 144 110 q 154 101 170 101 q 198 101 216 122 q 233 142 243 170 q 253 199 256 229 q 260 259 260 279 q 260 301 260 326 q 259 352 258 376 q 258 401 258 422 q 257 442 257 455 q 257 465 259 476 q 261 486 266 494 q 270 503 278 508 q 287 514 300 514 q 323 514 335 508 q 347 501 352 490 q 357 480 357 466 q 357 453 357 438 q 357 408 358 362 q 359 315 360 266 q 361 217 362 172 q 363 127 363 99 q 363 73 362 34 q 362 -5 358 -48 q 355 -91 346 -134 q 336 -176 318 -210 q 301 -245 274 -266 q 246 -288 205 -288 q 172 -288 146 -274 q 120 -260 102 -237 q 84 -214 74 -184 q 65 -155 65 -124 q 65 -115 66 -104 q 67 -94 70 -86 q 74 -77 81 -71 q 88 -65 100 -65 q 114 -65 129 -71 q 144 -77 144 -97 q 144 -109 146 -126 q 147 -144 153 -160 q 159 -177 170 -188 q 182 -200 203 -200 q 227 -200 240 -172 q 254 -143 260 -105 q 267 -67 268 -30 q 270 7 270 24 q 270 31 268 41 q 267 51 257 51 q 249 51 242 42 q 235 33 224 22 q 214 11 198 2 q 181 -7 155 -7 z"},"@":{"x_min":0,"x_max":717,"ha":717,"o":"m 308 -47 q 241 -47 190 -22 q 140 3 106 46 q 73 88 56 144 q 40 200 40 262 q 40 341 66 409 q 92 477 140 528 q 187 578 253 606 q 319 635 399 635 q 464 635 516 615 q 567 595 602 558 q 638 521 657 469 q 676 417 676 352 q 676 313 666 266 q 655 219 632 178 q 610 137 576 109 q 541 81 494 81 q 475 81 462 90 q 449 99 439 110 q 429 120 421 128 q 413 137 404 137 q 396 137 386 133 q 375 129 363 124 q 351 119 337 115 q 323 111 307 111 q 274 111 250 124 q 225 138 209 160 q 193 183 186 212 q 178 240 178 270 q 178 309 190 344 q 202 378 224 404 q 247 431 280 446 q 312 461 353 461 q 369 461 384 458 q 399 454 414 450 q 428 446 443 442 q 458 439 473 439 q 489 439 497 432 q 505 426 508 416 q 512 405 512 392 q 512 379 512 367 q 512 329 509 292 q 506 255 506 217 q 506 211 506 199 q 506 187 516 187 q 535 187 548 207 q 561 227 570 254 q 578 281 582 308 q 586 335 586 349 q 586 442 540 494 q 494 545 399 545 q 337 545 287 524 q 237 502 202 464 q 167 425 148 373 q 130 321 130 261 q 130 218 140 178 q 151 139 172 109 q 194 79 228 61 q 262 43 310 43 q 339 43 366 50 q 393 58 422 58 q 441 58 451 43 q 461 28 461 11 q 461 -7 442 -18 q 423 -30 398 -36 q 373 -43 348 -45 q 322 -47 308 -47 z m 268 269 q 268 259 270 248 q 272 236 276 226 q 281 215 289 208 q 297 201 310 201 q 327 201 346 209 q 366 217 382 232 q 399 246 410 266 q 422 287 422 313 q 422 331 416 342 q 409 353 399 360 q 389 366 377 368 q 365 371 355 371 q 333 371 316 363 q 300 355 289 341 q 278 327 273 308 q 268 290 268 269 z"},".":{"x_min":0,"x_max":254,"ha":254,"o":"m 60 32 q 60 59 76 76 q 93 92 120 92 q 147 92 163 75 q 179 58 179 31 q 179 4 162 -12 q 146 -29 119 -29 q 92 -29 76 -12 q 60 5 60 32 z"},"p":{"x_min":0,"x_max":416,"ha":416,"o":"m 28 425 q 28 436 28 452 q 28 467 32 480 q 35 494 44 504 q 53 513 70 513 q 91 513 98 506 q 106 499 109 490 q 112 482 115 475 q 118 468 130 468 q 139 468 148 476 q 156 484 168 494 q 180 504 197 512 q 214 520 240 520 q 285 520 316 498 q 346 475 364 438 q 382 400 390 352 q 398 305 398 255 q 398 205 390 158 q 381 111 362 74 q 342 38 310 16 q 278 -6 231 -6 q 209 -6 194 0 q 178 7 166 16 q 155 24 147 30 q 139 37 133 37 q 128 37 126 32 q 124 26 124 19 q 124 12 124 6 q 125 -1 125 -4 q 125 -16 125 -36 q 125 -56 126 -77 q 126 -98 126 -118 q 126 -137 126 -150 q 126 -164 126 -176 q 125 -187 121 -196 q 117 -205 107 -210 q 97 -215 77 -215 q 57 -215 43 -202 q 29 -189 29 -153 q 29 -88 29 -22 q 29 45 29 108 q 29 170 28 226 q 28 281 28 324 q 28 366 28 393 q 28 420 28 425 z m 124 249 q 124 228 129 202 q 134 177 145 154 q 156 132 174 116 q 191 101 217 101 q 261 101 278 142 q 295 183 295 257 q 295 274 292 302 q 290 330 282 356 q 275 382 262 401 q 248 420 227 420 q 200 420 181 404 q 162 389 150 366 q 137 342 131 316 q 125 289 125 267 z"},"X":{"x_min":0,"x_max":428,"ha":428,"o":"m 57 -7 q 38 -7 28 8 q 18 22 18 34 q 18 49 26 73 q 35 97 48 126 q 60 155 74 185 q 89 215 102 242 q 114 268 122 288 q 131 307 131 314 q 131 325 121 350 q 111 374 96 406 q 82 437 66 470 q 50 504 39 533 q 31 555 26 572 q 21 590 21 604 q 21 620 37 629 q 53 638 67 638 q 84 638 94 632 q 104 627 113 609 q 125 585 138 552 q 150 520 162 490 q 175 461 187 440 q 199 420 209 420 q 218 420 230 438 q 242 455 254 481 q 267 507 281 537 q 295 567 308 592 q 316 607 322 617 q 328 627 334 633 q 340 639 348 641 q 355 643 366 643 q 372 643 378 638 q 385 632 390 624 q 396 616 400 608 q 404 599 404 592 q 404 577 396 552 q 387 528 374 500 q 361 473 346 444 q 330 414 317 388 q 304 363 296 344 q 287 324 287 316 q 287 303 300 274 q 314 245 332 210 q 351 175 370 138 q 390 100 402 71 q 412 49 412 31 q 412 15 402 4 q 391 -7 365 -7 q 344 -7 331 7 q 318 21 306 46 q 292 75 278 104 q 264 134 252 158 q 240 182 230 198 q 221 213 215 213 q 205 213 193 194 q 181 175 168 148 q 155 121 142 91 q 129 61 117 39 q 101 11 88 2 q 74 -7 57 -7 z"},"*":{"x_min":0,"x_max":401,"ha":401,"o":"m 109 504 q 109 512 115 518 q 121 525 128 531 q 134 537 140 544 q 146 551 146 559 q 146 568 138 576 q 131 584 122 592 q 114 599 106 606 q 99 614 99 623 q 99 632 110 644 q 120 657 129 657 q 138 657 147 648 q 156 639 163 639 q 168 639 168 648 q 168 656 168 659 q 168 677 176 682 q 184 687 201 687 q 218 687 226 682 q 234 677 235 659 q 235 656 236 648 q 236 640 241 640 q 249 640 258 650 q 266 660 276 660 q 281 660 286 656 q 291 653 296 648 q 300 642 303 636 q 306 631 306 627 q 306 618 300 610 q 293 602 284 594 q 276 587 270 580 q 263 572 263 563 q 263 554 270 547 q 276 540 284 534 q 293 527 300 520 q 306 512 306 503 q 306 499 303 493 q 300 487 296 482 q 291 477 286 473 q 281 469 276 469 q 272 469 268 473 q 264 477 260 482 q 255 486 251 490 q 247 494 242 494 q 238 494 237 485 q 236 476 236 473 q 236 456 227 452 q 218 449 203 449 q 180 449 176 456 q 173 464 173 472 q 173 477 172 484 q 172 492 169 492 q 166 492 163 488 q 160 485 156 480 q 152 476 148 472 q 145 468 141 468 q 137 468 131 472 q 125 476 120 482 q 116 487 112 494 q 109 500 109 504 z"},"Y":{"x_min":0,"x_max":405,"ha":405,"o":"m 24 439 q 24 449 25 468 q 26 486 28 508 q 31 531 36 555 q 40 579 47 598 q 54 618 64 630 q 73 643 86 643 q 135 643 135 597 q 135 562 130 518 q 124 475 124 440 q 124 424 126 407 q 129 390 136 376 q 142 363 154 354 q 167 346 187 346 q 211 346 226 366 q 242 387 251 416 q 260 444 264 473 q 267 502 267 520 q 267 553 267 576 q 267 599 272 614 q 276 629 288 636 q 300 643 324 643 q 343 643 353 620 q 363 597 368 566 q 372 536 373 505 q 374 474 375 458 q 377 393 378 330 q 380 266 380 201 q 380 158 370 120 q 359 82 336 54 q 314 25 280 8 q 245 -8 197 -8 q 173 -8 145 2 q 117 11 93 28 q 69 44 53 68 q 37 91 37 119 q 37 139 47 154 q 57 170 77 170 q 91 170 103 154 q 115 139 128 121 q 142 103 159 88 q 176 72 200 72 q 228 72 245 92 q 262 111 272 138 q 281 165 284 194 q 288 224 288 244 q 288 249 288 262 q 288 276 287 291 q 286 306 284 318 q 282 329 277 329 q 270 329 264 318 q 257 306 244 292 q 232 277 210 266 q 189 254 152 254 q 116 254 92 272 q 67 290 52 317 q 37 344 30 376 q 24 409 24 439 z"},"c":{"x_min":0,"x_max":367,"ha":367,"o":"m 196 528 q 222 528 246 515 q 271 502 290 482 q 309 461 321 436 q 333 411 333 386 q 333 366 321 352 q 309 339 288 339 q 274 339 266 354 q 257 369 248 387 q 239 405 228 420 q 216 435 196 435 q 178 435 162 421 q 146 407 134 382 q 122 357 116 323 q 109 289 109 249 q 109 209 112 176 q 116 143 125 120 q 134 96 149 83 q 164 70 187 70 q 214 70 230 90 q 247 110 258 134 q 270 158 280 178 q 289 198 302 198 q 350 198 350 157 q 350 127 336 96 q 322 66 300 42 q 277 17 248 2 q 218 -14 187 -14 q 91 -14 50 55 q 9 124 9 251 q 9 315 21 366 q 33 417 56 453 q 80 489 115 508 q 150 528 196 528 z"},"!":{"x_min":0,"x_max":282,"ha":282,"o":"m 98 273 q 98 292 98 331 q 98 370 98 414 q 99 457 100 496 q 100 535 101 554 q 102 567 102 585 q 101 603 105 620 q 109 637 118 649 q 128 661 148 661 q 165 661 174 656 q 182 650 186 641 q 190 632 190 621 q 191 610 191 599 q 191 583 191 556 q 191 530 190 500 q 190 469 190 436 q 189 402 188 372 q 188 341 188 315 q 188 289 188 273 q 188 256 187 230 q 186 203 181 178 q 176 153 166 135 q 156 117 138 117 q 122 117 114 136 q 105 156 102 182 q 98 207 98 234 q 98 260 98 273 z m 93 35 q 93 55 106 68 q 118 81 138 81 q 158 81 170 68 q 183 55 183 35 q 183 15 170 2 q 158 -11 138 -11 q 118 -11 106 2 q 93 15 93 35 z"},"/":{"x_min":0,"x_max":436,"ha":436,"o":"m 37 4 q 37 23 45 51 q 53 79 66 112 q 78 146 94 182 q 109 217 124 250 q 140 282 153 310 q 166 337 174 354 q 178 364 191 392 q 204 419 222 456 q 239 492 259 532 q 279 572 298 606 q 317 639 333 660 q 349 682 357 682 q 377 682 390 670 q 403 659 403 635 q 403 624 395 600 q 387 576 374 545 q 361 514 346 478 q 330 443 315 410 q 300 378 288 352 q 275 325 268 310 q 264 302 252 274 q 240 246 223 209 q 206 172 186 132 q 166 91 147 56 q 128 22 112 0 q 95 -22 85 -22 q 78 -22 70 -20 q 61 -18 54 -14 q 47 -11 42 -6 q 37 -2 37 4 z"},"[":{"x_min":0,"x_max":276,"ha":276,"o":"m 160 707 q 174 707 184 706 q 194 705 200 700 q 206 696 209 688 q 212 679 212 663 q 212 632 199 624 q 186 617 169 617 q 164 617 158 607 q 153 597 153 580 q 153 522 152 454 q 151 386 150 316 q 149 246 148 178 q 147 110 147 52 q 147 48 148 41 q 149 34 152 27 q 156 20 162 16 q 169 11 180 11 q 205 11 212 1 q 219 -9 219 -30 q 219 -51 206 -66 q 194 -81 150 -81 q 117 -81 98 -66 q 80 -50 70 -26 q 60 -2 58 26 q 55 53 55 77 q 55 98 54 145 q 54 192 54 252 q 53 311 52 376 q 52 440 53 497 q 54 554 56 596 q 59 638 63 651 q 69 672 78 684 q 87 695 99 700 q 111 705 126 706 q 141 707 160 707 z"},"6":{"x_min":0,"x_max":2103,"ha":2103,"o":"m 47 319 q 47 398 64 447 q 80 496 110 523 q 141 550 184 560 q 226 569 278 569 q 330 569 372 560 q 415 550 445 523 q 475 496 492 447 q 508 398 508 319 q 508 240 492 191 q 475 142 445 114 q 415 87 372 78 q 330 68 278 68 q 226 68 184 78 q 141 87 110 114 q 80 142 64 191 q 47 240 47 319 z m 79 319 q 79 246 92 202 q 106 157 132 132 q 158 108 195 100 q 232 92 278 92 q 324 92 361 100 q 398 108 424 132 q 449 157 462 202 q 476 246 476 319 q 476 392 462 436 q 449 481 424 505 q 398 529 361 537 q 324 545 278 545 q 232 545 195 537 q 158 529 132 504 q 106 480 92 436 q 79 391 79 319 z m 2007 318 q 2007 238 1962 192 q 1917 146 1837 146 q 1757 146 1712 192 q 1667 238 1667 318 q 1667 398 1712 444 q 1757 490 1837 490 q 1917 490 1962 444 q 2007 397 2007 318 z m 293 256 l 293 298 q 293 301 291 303 l 187 409 l 187 208 q 187 191 193 191 l 137 191 q 143 191 143 208 l 143 453 q 143 468 137 470 l 193 470 q 191 470 191 468 q 191 463 193 456 q 195 449 203 441 l 290 353 q 293 350 293 353 l 293 469 q 293 485 287 486 l 346 486 q 344 486 340 481 q 337 476 337 469 l 337 256 z m 218 469 q 218 484 212 486 l 268 486 q 265 486 264 481 q 262 476 262 469 l 262 389 l 218 433 z m 880 317 q 880 257 846 214 q 811 170 753 158 q 736 154 718 154 q 701 153 684 153 l 568 153 l 568 483 l 687 483 q 728 483 763 474 q 798 465 824 445 q 850 425 865 394 q 880 362 880 317 z m 945 153 l 945 483 l 1184 483 l 1184 419 l 1030 419 l 1030 362 l 1173 362 l 1173 299 l 1030 299 l 1030 217 l 1184 217 l 1184 153 z m 1517 153 l 1517 374 l 1456 230 l 1397 230 l 1335 374 l 1335 153 l 1255 153 l 1255 483 l 1354 483 l 1428 317 l 1503 483 l 1602 483 l 1602 153 z m 212 151 q 214 151 216 156 q 218 161 218 168 l 218 370 l 262 325 l 262 260 q 262 251 268 251 l 361 251 q 368 251 368 260 l 368 441 q 368 448 366 453 q 365 458 362 458 l 418 458 q 416 458 414 453 q 412 448 412 441 l 412 184 q 412 167 418 167 l 362 167 q 368 167 368 184 l 368 211 q 368 217 366 218 q 365 220 361 220 l 268 220 q 265 220 264 218 q 262 217 262 211 l 262 168 q 262 161 264 156 q 265 151 268 151 z m 1837 208 q 1860 208 1876 218 q 1892 228 1902 244 q 1911 259 1915 279 q 1919 299 1919 318 q 1919 338 1915 358 q 1911 377 1902 392 q 1892 408 1876 418 q 1860 428 1837 428 q 1814 428 1798 418 q 1782 408 1772 392 q 1763 377 1759 358 q 1755 338 1755 318 q 1755 299 1759 279 q 1763 259 1772 244 q 1782 228 1798 218 q 1814 208 1837 208 z m 792 319 q 792 348 784 368 q 775 387 760 399 q 745 411 723 416 q 701 421 674 421 l 653 421 l 653 215 l 674 215 q 729 215 760 237 q 792 259 792 319 z m 337 215 l 337 184 q 337 177 339 172 q 341 167 343 167 l 287 167 q 293 169 293 184 l 293 215 z"},"r":{"x_min":0,"x_max":252,"ha":252,"o":"m 243 466 q 243 458 242 445 q 240 432 229 432 l 220 433 q 192 433 173 420 q 154 408 142 388 q 130 368 125 344 q 120 319 120 295 l 120 248 l 117 138 l 117 90 q 117 78 118 62 q 118 46 115 32 q 112 17 103 6 q 94 -4 76 -4 q 46 -4 32 11 q 18 26 18 52 l 18 148 l 19 346 l 19 442 q 19 453 20 466 q 21 479 25 490 q 29 501 38 508 q 46 515 61 515 q 75 515 85 510 q 95 505 97 490 q 99 476 101 470 q 103 465 106 465 q 109 465 116 474 q 123 483 134 494 q 146 505 162 514 q 177 523 198 523 q 222 523 232 505 q 243 487 243 466 z"},"2":{"x_min":0,"x_max":2103,"ha":2103,"o":"m 47 319 q 47 398 64 447 q 80 496 110 523 q 141 550 184 560 q 226 569 278 569 q 330 569 372 560 q 415 550 445 523 q 475 496 492 447 q 508 398 508 319 q 508 240 492 191 q 475 142 445 114 q 415 87 372 78 q 330 68 278 68 q 226 68 184 78 q 141 87 110 114 q 80 142 64 191 q 47 240 47 319 z m 79 319 q 79 246 92 202 q 106 157 132 132 q 158 108 195 100 q 232 92 278 92 q 324 92 361 100 q 398 108 424 132 q 449 157 462 202 q 476 246 476 319 q 476 392 462 436 q 449 481 424 505 q 398 529 361 537 q 324 545 278 545 q 232 545 195 537 q 158 529 132 504 q 106 480 92 436 q 79 391 79 319 z m 2007 318 q 2007 238 1962 192 q 1917 146 1837 146 q 1757 146 1712 192 q 1667 238 1667 318 q 1667 398 1712 444 q 1757 490 1837 490 q 1917 490 1962 444 q 2007 397 2007 318 z m 293 256 l 293 298 q 293 301 291 303 l 187 409 l 187 208 q 187 191 193 191 l 137 191 q 143 191 143 208 l 143 453 q 143 468 137 470 l 193 470 q 191 470 191 468 q 191 463 193 456 q 195 449 203 441 l 290 353 q 293 350 293 353 l 293 469 q 293 485 287 486 l 346 486 q 344 486 340 481 q 337 476 337 469 l 337 256 z m 218 469 q 218 484 212 486 l 268 486 q 265 486 264 481 q 262 476 262 469 l 262 389 l 218 433 z m 880 317 q 880 257 846 214 q 811 170 753 158 q 736 154 718 154 q 701 153 684 153 l 568 153 l 568 483 l 687 483 q 728 483 763 474 q 798 465 824 445 q 850 425 865 394 q 880 362 880 317 z m 945 153 l 945 483 l 1184 483 l 1184 419 l 1030 419 l 1030 362 l 1173 362 l 1173 299 l 1030 299 l 1030 217 l 1184 217 l 1184 153 z m 1517 153 l 1517 374 l 1456 230 l 1397 230 l 1335 374 l 1335 153 l 1255 153 l 1255 483 l 1354 483 l 1428 317 l 1503 483 l 1602 483 l 1602 153 z m 212 151 q 214 151 216 156 q 218 161 218 168 l 218 370 l 262 325 l 262 260 q 262 251 268 251 l 361 251 q 368 251 368 260 l 368 441 q 368 448 366 453 q 365 458 362 458 l 418 458 q 416 458 414 453 q 412 448 412 441 l 412 184 q 412 167 418 167 l 362 167 q 368 167 368 184 l 368 211 q 368 217 366 218 q 365 220 361 220 l 268 220 q 265 220 264 218 q 262 217 262 211 l 262 168 q 262 161 264 156 q 265 151 268 151 z m 1837 208 q 1860 208 1876 218 q 1892 228 1902 244 q 1911 259 1915 279 q 1919 299 1919 318 q 1919 338 1915 358 q 1911 377 1902 392 q 1892 408 1876 418 q 1860 428 1837 428 q 1814 428 1798 418 q 1782 408 1772 392 q 1763 377 1759 358 q 1755 338 1755 318 q 1755 299 1759 279 q 1763 259 1772 244 q 1782 228 1798 218 q 1814 208 1837 208 z m 792 319 q 792 348 784 368 q 775 387 760 399 q 745 411 723 416 q 701 421 674 421 l 653 421 l 653 215 l 674 215 q 729 215 760 237 q 792 259 792 319 z m 337 215 l 337 184 q 337 177 339 172 q 341 167 343 167 l 287 167 q 293 169 293 184 l 293 215 z"},"{":{"x_min":0,"x_max":319,"ha":319,"o":"m 73 319 q 72 336 80 344 q 87 351 96 359 q 105 367 112 382 q 120 396 118 427 q 117 443 116 469 q 114 495 114 525 q 114 555 117 586 q 120 617 128 642 q 136 667 151 684 q 166 700 190 701 q 204 702 216 692 q 228 681 229 667 q 230 651 222 638 q 213 624 209 610 q 203 588 204 562 q 204 535 205 513 q 206 490 208 466 q 210 442 210 419 q 210 408 210 398 q 209 387 207 376 q 206 369 202 360 q 198 352 194 343 q 189 334 186 326 q 182 318 182 313 q 182 306 186 296 q 191 286 196 275 q 201 264 205 252 q 209 239 210 227 q 212 188 211 150 q 210 111 212 72 q 213 57 221 46 q 229 35 239 24 q 249 14 257 4 q 265 -5 266 -17 q 267 -33 256 -46 q 245 -58 228 -59 q 208 -61 190 -48 q 173 -34 160 -20 q 137 6 129 40 q 121 74 119 108 q 117 134 120 160 q 122 186 120 212 q 119 240 112 253 q 104 266 96 274 q 88 283 81 292 q 74 300 73 319 z"},"9":{"x_min":0,"x_max":2103,"ha":2103,"o":"m 47 319 q 47 398 64 447 q 80 496 110 523 q 141 550 184 560 q 226 569 278 569 q 330 569 372 560 q 415 550 445 523 q 475 496 492 447 q 508 398 508 319 q 508 240 492 191 q 475 142 445 114 q 415 87 372 78 q 330 68 278 68 q 226 68 184 78 q 141 87 110 114 q 80 142 64 191 q 47 240 47 319 z m 79 319 q 79 246 92 202 q 106 157 132 132 q 158 108 195 100 q 232 92 278 92 q 324 92 361 100 q 398 108 424 132 q 449 157 462 202 q 476 246 476 319 q 476 392 462 436 q 449 481 424 505 q 398 529 361 537 q 324 545 278 545 q 232 545 195 537 q 158 529 132 504 q 106 480 92 436 q 79 391 79 319 z m 2007 318 q 2007 238 1962 192 q 1917 146 1837 146 q 1757 146 1712 192 q 1667 238 1667 318 q 1667 398 1712 444 q 1757 490 1837 490 q 1917 490 1962 444 q 2007 397 2007 318 z m 293 256 l 293 298 q 293 301 291 303 l 187 409 l 187 208 q 187 191 193 191 l 137 191 q 143 191 143 208 l 143 453 q 143 468 137 470 l 193 470 q 191 470 191 468 q 191 463 193 456 q 195 449 203 441 l 290 353 q 293 350 293 353 l 293 469 q 293 485 287 486 l 346 486 q 344 486 340 481 q 337 476 337 469 l 337 256 z m 218 469 q 218 484 212 486 l 268 486 q 265 486 264 481 q 262 476 262 469 l 262 389 l 218 433 z m 880 317 q 880 257 846 214 q 811 170 753 158 q 736 154 718 154 q 701 153 684 153 l 568 153 l 568 483 l 687 483 q 728 483 763 474 q 798 465 824 445 q 850 425 865 394 q 880 362 880 317 z m 945 153 l 945 483 l 1184 483 l 1184 419 l 1030 419 l 1030 362 l 1173 362 l 1173 299 l 1030 299 l 1030 217 l 1184 217 l 1184 153 z m 1517 153 l 1517 374 l 1456 230 l 1397 230 l 1335 374 l 1335 153 l 1255 153 l 1255 483 l 1354 483 l 1428 317 l 1503 483 l 1602 483 l 1602 153 z m 212 151 q 214 151 216 156 q 218 161 218 168 l 218 370 l 262 325 l 262 260 q 262 251 268 251 l 361 251 q 368 251 368 260 l 368 441 q 368 448 366 453 q 365 458 362 458 l 418 458 q 416 458 414 453 q 412 448 412 441 l 412 184 q 412 167 418 167 l 362 167 q 368 167 368 184 l 368 211 q 368 217 366 218 q 365 220 361 220 l 268 220 q 265 220 264 218 q 262 217 262 211 l 262 168 q 262 161 264 156 q 265 151 268 151 z m 1837 208 q 1860 208 1876 218 q 1892 228 1902 244 q 1911 259 1915 279 q 1919 299 1919 318 q 1919 338 1915 358 q 1911 377 1902 392 q 1892 408 1876 418 q 1860 428 1837 428 q 1814 428 1798 418 q 1782 408 1772 392 q 1763 377 1759 358 q 1755 338 1755 318 q 1755 299 1759 279 q 1763 259 1772 244 q 1782 228 1798 218 q 1814 208 1837 208 z m 792 319 q 792 348 784 368 q 775 387 760 399 q 745 411 723 416 q 701 421 674 421 l 653 421 l 653 215 l 674 215 q 729 215 760 237 q 792 259 792 319 z m 337 215 l 337 184 q 337 177 339 172 q 341 167 343 167 l 287 167 q 293 169 293 184 l 293 215 z"}," ":{"x_min":0,"x_max":280,"ha":280,"o":""},"I":{"x_min":0,"x_max":248,"ha":248,"o":"m 174 230 l 174 193 l 175 120 l 175 83 q 175 75 182 73 q 188 71 196 69 q 205 67 212 62 q 218 56 218 41 q 218 19 204 8 q 191 -3 172 -7 q 152 -11 129 -10 q 106 -10 88 -10 q 78 -10 67 -10 q 56 -9 46 -6 q 37 -2 31 6 q 25 13 25 26 q 25 37 32 44 q 40 51 48 56 q 57 62 64 66 q 72 70 72 76 q 72 182 72 286 q 72 391 74 497 l 74 510 l 75 535 l 75 548 q 75 557 67 561 q 59 565 50 569 q 41 573 33 580 q 25 586 25 601 q 25 618 39 626 q 53 634 73 638 q 93 641 114 641 q 136 641 150 641 q 164 641 176 640 q 188 640 198 636 q 207 632 212 623 q 218 614 218 598 q 218 585 212 578 q 206 572 198 568 q 191 564 185 562 q 179 559 179 554 l 179 537 l 178 503 l 178 486 q 177 421 176 358 q 174 294 174 230 z"},"H":{"x_min":0,"x_max":442,"ha":442,"o":"m 31 95 q 31 194 30 296 q 30 398 34 497 q 35 514 36 538 q 36 563 41 586 q 46 610 58 626 q 71 643 95 643 q 113 643 123 635 q 133 627 138 614 q 143 601 144 586 q 145 572 145 558 q 145 533 144 508 q 142 483 142 457 q 142 438 144 416 q 147 394 155 375 q 163 356 178 344 q 192 332 217 332 q 249 332 266 357 q 284 382 292 416 q 300 451 302 488 q 303 526 303 551 q 303 567 304 582 q 305 598 310 610 q 316 623 328 630 q 340 638 361 638 q 382 638 392 624 q 401 611 405 592 q 409 573 408 553 q 408 533 408 521 l 409 145 q 409 131 410 106 q 411 81 408 57 q 405 33 396 16 q 386 -2 364 -2 q 340 -2 328 11 q 317 24 312 44 q 308 65 308 90 q 307 116 306 141 q 305 160 302 178 q 298 195 289 208 q 280 222 264 230 q 248 238 223 238 q 196 238 179 230 q 162 222 152 208 q 143 194 140 176 q 136 159 137 139 q 138 113 138 88 q 138 64 134 44 q 129 25 116 13 q 104 1 79 1 q 60 1 50 10 q 40 20 36 34 q 32 48 32 64 q 31 81 31 95 z"},"4":{"x_min":0,"x_max":2103,"ha":2103,"o":"m 47 319 q 47 398 64 447 q 80 496 110 523 q 141 550 184 560 q 226 569 278 569 q 330 569 372 560 q 415 550 445 523 q 475 496 492 447 q 508 398 508 319 q 508 240 492 191 q 475 142 445 114 q 415 87 372 78 q 330 68 278 68 q 226 68 184 78 q 141 87 110 114 q 80 142 64 191 q 47 240 47 319 z m 79 319 q 79 246 92 202 q 106 157 132 132 q 158 108 195 100 q 232 92 278 92 q 324 92 361 100 q 398 108 424 132 q 449 157 462 202 q 476 246 476 319 q 476 392 462 436 q 449 481 424 505 q 398 529 361 537 q 324 545 278 545 q 232 545 195 537 q 158 529 132 504 q 106 480 92 436 q 79 391 79 319 z m 2007 318 q 2007 238 1962 192 q 1917 146 1837 146 q 1757 146 1712 192 q 1667 238 1667 318 q 1667 398 1712 444 q 1757 490 1837 490 q 1917 490 1962 444 q 2007 397 2007 318 z m 293 256 l 293 298 q 293 301 291 303 l 187 409 l 187 208 q 187 191 193 191 l 137 191 q 143 191 143 208 l 143 453 q 143 468 137 470 l 193 470 q 191 470 191 468 q 191 463 193 456 q 195 449 203 441 l 290 353 q 293 350 293 353 l 293 469 q 293 485 287 486 l 346 486 q 344 486 340 481 q 337 476 337 469 l 337 256 z m 218 469 q 218 484 212 486 l 268 486 q 265 486 264 481 q 262 476 262 469 l 262 389 l 218 433 z m 880 317 q 880 257 846 214 q 811 170 753 158 q 736 154 718 154 q 701 153 684 153 l 568 153 l 568 483 l 687 483 q 728 483 763 474 q 798 465 824 445 q 850 425 865 394 q 880 362 880 317 z m 945 153 l 945 483 l 1184 483 l 1184 419 l 1030 419 l 1030 362 l 1173 362 l 1173 299 l 1030 299 l 1030 217 l 1184 217 l 1184 153 z m 1517 153 l 1517 374 l 1456 230 l 1397 230 l 1335 374 l 1335 153 l 1255 153 l 1255 483 l 1354 483 l 1428 317 l 1503 483 l 1602 483 l 1602 153 z m 212 151 q 214 151 216 156 q 218 161 218 168 l 218 370 l 262 325 l 262 260 q 262 251 268 251 l 361 251 q 368 251 368 260 l 368 441 q 368 448 366 453 q 365 458 362 458 l 418 458 q 416 458 414 453 q 412 448 412 441 l 412 184 q 412 167 418 167 l 362 167 q 368 167 368 184 l 368 211 q 368 217 366 218 q 365 220 361 220 l 268 220 q 265 220 264 218 q 262 217 262 211 l 262 168 q 262 161 264 156 q 265 151 268 151 z m 1837 208 q 1860 208 1876 218 q 1892 228 1902 244 q 1911 259 1915 279 q 1919 299 1919 318 q 1919 338 1915 358 q 1911 377 1902 392 q 1892 408 1876 418 q 1860 428 1837 428 q 1814 428 1798 418 q 1782 408 1772 392 q 1763 377 1759 358 q 1755 338 1755 318 q 1755 299 1759 279 q 1763 259 1772 244 q 1782 228 1798 218 q 1814 208 1837 208 z m 792 319 q 792 348 784 368 q 775 387 760 399 q 745 411 723 416 q 701 421 674 421 l 653 421 l 653 215 l 674 215 q 729 215 760 237 q 792 259 792 319 z m 337 215 l 337 184 q 337 177 339 172 q 341 167 343 167 l 287 167 q 293 169 293 184 l 293 215 z"},"~":{"x_min":0,"x_max":550,"ha":550,"o":"m 205 295 q 198 295 192 290 q 187 285 181 280 q 175 274 168 269 q 160 264 149 264 q 141 264 130 267 q 120 270 110 276 q 101 282 94 290 q 88 299 88 310 q 88 327 100 342 q 113 356 131 366 q 149 377 168 383 q 188 389 202 389 q 223 389 242 382 q 262 375 280 366 q 299 358 316 351 q 332 344 346 344 q 355 344 360 350 q 365 356 372 363 q 378 370 388 376 q 397 382 414 382 q 429 382 442 368 q 455 354 455 338 q 455 322 445 305 q 435 288 420 274 q 404 260 386 252 q 368 243 352 243 q 332 243 312 251 q 291 259 272 269 q 253 279 236 287 q 219 295 205 295 z"},"D":{"x_min":0,"x_max":455,"ha":455,"o":"m 30 111 q 30 156 32 211 q 33 266 34 320 q 36 373 37 420 q 38 467 38 495 q 38 516 43 540 q 48 564 58 586 q 69 607 86 622 q 103 638 128 641 q 144 643 165 646 q 186 648 209 648 q 269 648 311 623 q 353 598 380 558 q 406 517 418 466 q 430 414 430 362 q 430 314 423 264 q 416 215 399 169 q 382 123 354 84 q 326 45 284 18 q 273 11 258 4 q 242 -3 225 -8 q 208 -12 191 -15 q 174 -18 160 -18 q 144 -18 125 -17 q 106 -16 88 -12 q 70 -9 56 -1 q 42 7 34 22 q 29 42 30 66 q 30 91 30 111 z m 201 540 q 188 540 180 540 q 173 540 167 539 q 157 538 151 512 q 145 487 142 448 q 138 409 138 362 q 137 314 137 270 q 137 225 138 188 q 139 152 139 135 q 139 130 138 121 q 138 112 141 103 q 144 94 152 88 q 160 81 177 81 q 210 81 238 108 q 266 135 286 174 q 305 214 316 260 q 327 306 327 344 q 327 431 295 486 q 263 540 201 540 z"},"^":{"x_min":0,"x_max":358,"ha":358,"o":"m 72 414 q 59 414 48 424 q 38 434 38 446 q 38 454 46 474 q 53 493 65 518 q 77 544 92 571 q 106 598 122 621 q 137 644 151 658 q 165 673 175 673 q 195 673 218 644 q 241 616 261 578 q 281 540 294 503 q 308 466 308 448 q 308 434 296 424 q 285 415 272 415 q 255 415 243 436 q 231 457 221 482 q 211 506 201 527 q 191 548 178 548 q 165 548 154 527 q 142 506 130 481 q 118 456 104 435 q 90 414 72 414 z"},"0":{"x_min":0,"x_max":2103,"ha":2103,"o":"m 47 319 q 47 398 64 447 q 80 496 110 523 q 141 550 184 560 q 226 569 278 569 q 330 569 372 560 q 415 550 445 523 q 475 496 492 447 q 508 398 508 319 q 508 240 492 191 q 475 142 445 114 q 415 87 372 78 q 330 68 278 68 q 226 68 184 78 q 141 87 110 114 q 80 142 64 191 q 47 240 47 319 z m 79 319 q 79 246 92 202 q 106 157 132 132 q 158 108 195 100 q 232 92 278 92 q 324 92 361 100 q 398 108 424 132 q 449 157 462 202 q 476 246 476 319 q 476 392 462 436 q 449 481 424 505 q 398 529 361 537 q 324 545 278 545 q 232 545 195 537 q 158 529 132 504 q 106 480 92 436 q 79 391 79 319 z m 2007 318 q 2007 238 1962 192 q 1917 146 1837 146 q 1757 146 1712 192 q 1667 238 1667 318 q 1667 398 1712 444 q 1757 490 1837 490 q 1917 490 1962 444 q 2007 397 2007 318 z m 293 256 l 293 298 q 293 301 291 303 l 187 409 l 187 208 q 187 191 193 191 l 137 191 q 143 191 143 208 l 143 453 q 143 468 137 470 l 193 470 q 191 470 191 468 q 191 463 193 456 q 195 449 203 441 l 290 353 q 293 350 293 353 l 293 469 q 293 485 287 486 l 346 486 q 344 486 340 481 q 337 476 337 469 l 337 256 z m 218 469 q 218 484 212 486 l 268 486 q 265 486 264 481 q 262 476 262 469 l 262 389 l 218 433 z m 880 317 q 880 257 846 214 q 811 170 753 158 q 736 154 718 154 q 701 153 684 153 l 568 153 l 568 483 l 687 483 q 728 483 763 474 q 798 465 824 445 q 850 425 865 394 q 880 362 880 317 z m 945 153 l 945 483 l 1184 483 l 1184 419 l 1030 419 l 1030 362 l 1173 362 l 1173 299 l 1030 299 l 1030 217 l 1184 217 l 1184 153 z m 1517 153 l 1517 374 l 1456 230 l 1397 230 l 1335 374 l 1335 153 l 1255 153 l 1255 483 l 1354 483 l 1428 317 l 1503 483 l 1602 483 l 1602 153 z m 212 151 q 214 151 216 156 q 218 161 218 168 l 218 370 l 262 325 l 262 260 q 262 251 268 251 l 361 251 q 368 251 368 260 l 368 441 q 368 448 366 453 q 365 458 362 458 l 418 458 q 416 458 414 453 q 412 448 412 441 l 412 184 q 412 167 418 167 l 362 167 q 368 167 368 184 l 368 211 q 368 217 366 218 q 365 220 361 220 l 268 220 q 265 220 264 218 q 262 217 262 211 l 262 168 q 262 161 264 156 q 265 151 268 151 z m 1837 208 q 1860 208 1876 218 q 1892 228 1902 244 q 1911 259 1915 279 q 1919 299 1919 318 q 1919 338 1915 358 q 1911 377 1902 392 q 1892 408 1876 418 q 1860 428 1837 428 q 1814 428 1798 418 q 1782 408 1772 392 q 1763 377 1759 358 q 1755 338 1755 318 q 1755 299 1759 279 q 1763 259 1772 244 q 1782 228 1798 218 q 1814 208 1837 208 z m 792 319 q 792 348 784 368 q 775 387 760 399 q 745 411 723 416 q 701 421 674 421 l 653 421 l 653 215 l 674 215 q 729 215 760 237 q 792 259 792 319 z m 337 215 l 337 184 q 337 177 339 172 q 341 167 343 167 l 287 167 q 293 169 293 184 l 293 215 z"},"F":{"x_min":0,"x_max":354,"ha":354,"o":"m 34 188 q 34 269 38 349 q 41 429 41 510 l 41 579 q 41 600 51 612 q 61 623 77 628 q 93 633 112 634 q 130 636 146 638 q 169 640 192 642 q 215 644 238 644 q 251 644 270 644 q 288 643 305 638 q 322 634 334 624 q 346 614 346 596 q 346 572 338 554 q 329 536 302 536 q 282 536 266 540 q 249 543 229 543 q 201 543 186 538 q 171 532 164 520 q 157 508 156 490 q 155 471 155 444 q 155 412 166 398 q 177 384 193 380 q 209 375 228 376 q 247 376 263 374 q 279 371 290 361 q 301 351 301 325 q 301 301 290 290 q 278 279 260 276 q 243 273 222 274 q 202 275 184 273 q 167 271 156 263 q 144 255 144 234 l 144 192 l 146 107 l 146 65 q 146 49 145 35 q 144 21 139 11 q 134 1 124 -5 q 114 -11 95 -11 q 73 -11 61 -2 q 49 6 44 20 q 39 33 38 50 q 37 67 36 85 q 35 111 34 136 q 34 162 34 188 z"},"`":{"x_min":0,"x_max":248,"ha":248,"o":"m 168 549 q 168 537 160 524 q 153 512 139 512 q 126 512 112 524 q 97 535 84 552 q 72 568 64 585 q 56 602 56 614 q 56 627 64 634 q 72 640 84 640 q 95 640 102 636 q 110 632 115 626 q 120 620 124 612 q 129 604 135 596 q 148 578 158 570 q 168 561 168 549 z"},"k":{"x_min":0,"x_max":373,"ha":373,"o":"m 28 418 q 28 438 28 466 q 28 495 28 525 q 29 555 30 584 q 30 613 30 632 q 30 647 30 664 q 30 680 34 694 q 38 709 49 718 q 60 728 83 728 q 104 728 114 720 q 123 711 126 698 q 130 686 130 671 q 129 656 129 643 l 129 471 q 129 426 132 400 q 135 373 145 373 q 159 373 178 396 q 198 420 219 448 q 240 476 260 500 q 281 523 297 523 q 319 523 334 512 q 348 502 348 490 q 348 474 330 446 q 312 417 290 386 q 269 356 251 328 q 233 300 233 285 q 233 277 243 258 q 253 240 268 216 q 282 192 299 164 q 316 137 330 112 q 345 87 355 66 q 365 45 365 33 q 365 10 352 3 q 339 -4 327 -4 q 307 -4 288 12 q 270 27 253 51 q 236 75 221 102 q 206 129 192 153 q 179 177 168 192 q 157 208 148 208 q 141 208 138 200 q 134 193 132 183 q 131 173 131 164 q 131 156 131 153 q 131 127 132 108 q 134 89 134 63 q 134 51 133 40 q 132 28 127 19 q 122 10 112 5 q 102 0 83 0 q 62 0 52 13 q 42 26 38 45 q 34 64 34 84 q 33 104 33 119 q 32 145 32 186 q 31 226 30 268 q 29 311 28 352 q 28 392 28 418 z"},"u":{"x_min":0,"x_max":394,"ha":394,"o":"m 272 433 q 272 447 272 462 q 272 477 276 490 q 280 503 290 512 q 300 520 321 520 q 342 520 352 508 q 362 496 366 479 q 370 462 370 444 q 369 425 369 411 q 370 376 370 332 q 370 289 370 244 q 370 200 370 156 q 369 113 369 78 q 369 65 369 51 q 369 37 365 26 q 361 14 352 6 q 343 -1 326 -1 q 304 -1 294 8 q 285 16 282 26 q 279 36 278 44 q 278 53 272 53 q 268 53 259 44 q 250 34 236 23 q 222 12 202 2 q 183 -7 156 -7 q 110 -7 83 18 q 56 43 43 80 q 30 117 26 158 q 23 199 23 232 l 23 280 l 22 402 l 22 450 q 22 463 22 474 q 22 486 26 495 q 29 504 38 509 q 48 514 67 514 q 89 514 100 508 q 111 501 116 490 q 120 479 120 465 q 121 451 121 436 q 121 424 121 404 q 121 385 121 364 q 121 342 121 322 q 121 303 121 291 q 121 274 120 242 q 120 211 124 180 q 129 148 141 124 q 153 101 178 101 q 208 101 226 126 q 243 150 252 183 q 261 216 264 250 q 266 285 267 305 z"},"]":{"x_min":0,"x_max":270,"ha":270,"o":"m 105 707 q 125 707 140 706 q 155 705 166 700 q 178 695 186 684 q 195 672 202 651 q 205 642 207 622 q 209 602 210 576 q 211 551 212 522 q 212 493 212 466 q 212 440 212 418 q 212 397 212 386 l 212 309 l 210 154 l 210 77 q 210 52 208 24 q 205 -3 195 -26 q 185 -50 166 -66 q 147 -81 115 -81 q 86 -81 66 -72 q 46 -62 46 -30 q 46 -11 52 -2 q 57 6 65 8 q 73 11 82 12 q 91 12 99 14 q 107 17 112 25 q 118 33 118 52 q 118 185 115 316 q 112 447 112 580 q 112 598 108 606 q 103 613 96 616 q 90 619 82 619 q 75 619 68 622 q 62 626 58 634 q 53 643 53 663 q 53 679 56 688 q 59 696 65 700 q 71 705 81 706 q 91 707 105 707 z"},"U":{"x_min":0,"x_max":440,"ha":440,"o":"m 19 331 q 19 343 19 366 q 19 389 20 414 q 20 438 20 460 q 21 483 21 493 q 22 521 24 546 q 25 571 30 590 q 35 610 46 622 q 57 633 76 633 q 93 633 104 630 q 114 626 119 617 q 124 608 126 593 q 127 578 127 556 q 127 538 126 508 q 126 477 125 440 q 124 403 124 362 q 123 322 123 284 q 123 188 140 137 q 158 86 185 86 q 199 86 213 104 q 227 123 240 154 q 254 186 266 230 q 278 273 287 323 q 296 373 301 428 q 306 482 306 536 q 306 585 318 608 q 330 632 360 632 q 414 632 414 550 q 414 527 411 492 q 408 456 406 411 q 404 372 404 332 q 403 292 403 254 q 403 215 403 181 q 403 147 403 120 q 403 87 403 64 q 403 42 399 28 q 395 13 387 6 q 379 0 362 0 q 339 0 328 8 q 317 15 314 28 q 310 41 310 59 q 310 77 310 99 q 310 117 309 124 q 308 131 306 131 q 302 131 294 108 q 287 86 271 58 q 255 31 228 8 q 200 -14 156 -14 q 117 -14 90 8 q 64 30 48 73 q 32 116 26 181 q 19 246 19 331 z"},"o":{"x_min":0,"x_max":409,"ha":409,"o":"m 16 252 q 16 312 30 361 q 43 410 68 445 q 92 480 126 499 q 160 518 202 518 q 244 518 278 499 q 313 480 338 446 q 364 411 378 363 q 392 315 392 258 q 392 200 378 151 q 363 102 337 66 q 311 31 275 11 q 239 -9 197 -9 q 157 -9 124 10 q 90 29 66 63 q 42 97 29 146 q 16 194 16 252 z m 118 258 q 118 180 140 134 q 161 88 197 88 q 217 88 234 102 q 250 115 263 138 q 276 162 283 194 q 290 226 290 262 q 290 298 283 328 q 276 359 264 382 q 251 404 234 417 q 218 430 199 430 q 162 430 140 384 q 118 337 118 258 z"},"N":{"x_min":0,"x_max":437,"ha":437,"o":"m 20 336 q 20 374 20 412 q 21 449 22 487 q 22 503 22 528 q 23 554 28 578 q 34 603 46 620 q 58 638 82 638 q 105 638 115 626 q 125 613 138 592 q 148 576 163 544 q 178 511 195 472 q 212 433 230 391 q 247 349 262 315 q 278 281 289 259 q 300 237 305 237 q 310 237 312 257 q 314 277 315 302 q 316 327 316 350 q 316 372 316 377 q 316 387 316 406 q 315 424 314 448 q 313 471 313 498 q 313 524 313 550 q 314 584 324 608 q 335 632 362 632 q 382 632 392 622 q 402 613 406 599 q 410 585 410 568 q 411 552 411 537 l 411 486 l 408 384 l 408 333 q 408 281 409 230 q 410 178 410 125 q 410 111 410 90 q 410 69 406 49 q 403 29 392 14 q 382 0 361 0 q 334 0 308 25 q 283 50 260 88 q 236 126 215 170 q 194 213 176 251 q 159 289 146 314 q 133 339 125 339 q 120 339 118 324 q 116 310 116 291 q 115 272 116 253 q 116 234 116 226 l 116 92 q 116 73 114 56 q 113 40 108 28 q 103 15 94 8 q 86 0 72 0 q 54 0 44 6 q 34 13 30 26 q 25 39 24 58 q 24 78 23 103 q 23 120 22 152 q 22 184 22 220 q 21 255 20 288 q 20 320 20 336 z"},"+":{"x_min":0,"x_max":470,"ha":470,"o":"m 283 381 q 283 363 284 351 q 285 339 289 332 q 293 326 302 324 q 310 321 326 321 q 338 321 348 321 q 359 321 366 318 q 373 314 377 306 q 381 298 381 282 q 381 261 374 252 q 368 243 358 240 q 348 238 336 239 q 324 240 314 240 q 293 240 288 225 q 283 210 282 178 q 282 164 281 152 q 280 141 276 133 q 271 125 262 120 q 253 116 237 116 q 208 116 201 130 q 194 144 194 170 q 194 206 189 222 q 184 238 164 238 q 150 238 138 236 q 125 235 116 238 q 106 241 100 250 q 95 259 95 280 q 95 300 101 308 q 107 317 116 320 q 125 322 136 321 q 148 320 159 320 q 167 320 173 322 q 179 323 184 330 q 189 336 192 348 q 195 360 195 381 q 195 395 196 406 q 197 417 201 425 q 205 433 214 438 q 223 442 239 442 q 255 442 264 438 q 272 433 276 425 q 281 417 282 406 q 283 395 283 381 z"},"G":{"x_min":0,"x_max":442,"ha":442,"o":"m 229 -18 q 183 -18 144 2 q 105 23 76 64 q 48 106 32 169 q 16 232 16 317 q 16 402 32 464 q 49 526 78 567 q 106 608 146 628 q 186 648 232 648 q 272 648 300 636 q 329 625 347 608 q 365 590 374 570 q 382 550 382 532 q 382 514 374 502 q 366 490 351 490 q 335 490 322 502 q 310 513 298 526 q 286 540 272 551 q 259 562 239 562 q 187 562 158 502 q 130 442 130 317 q 130 192 157 137 q 184 82 231 82 q 244 82 257 88 q 270 93 280 106 q 290 119 296 140 q 303 161 303 191 q 303 228 293 242 q 283 255 255 255 q 238 255 224 256 q 210 258 210 281 q 210 305 227 318 q 244 331 268 336 q 291 341 316 342 q 340 342 356 342 q 364 342 375 342 q 386 341 396 336 q 407 332 414 322 q 422 311 422 292 q 422 274 416 270 q 411 266 403 266 q 393 266 391 250 q 389 234 389 202 q 389 149 377 108 q 365 67 344 39 q 322 11 292 -4 q 263 -18 229 -18 z"},"q":{"x_min":0,"x_max":409,"ha":409,"o":"m 389 454 q 389 449 389 420 q 389 391 389 345 q 389 299 388 240 q 388 181 388 115 q 388 49 388 -20 q 388 -88 388 -153 q 388 -189 374 -202 q 360 -215 340 -215 q 321 -215 311 -210 q 301 -205 298 -196 q 294 -187 294 -176 q 294 -164 294 -150 q 294 -137 294 -118 q 294 -98 294 -77 q 295 -56 295 -36 q 295 -16 295 -4 q 295 -1 295 6 q 295 12 294 19 q 294 26 292 32 q 289 37 284 37 q 278 37 270 30 q 262 24 250 16 q 239 7 224 0 q 208 -6 186 -6 q 139 -6 107 14 q 75 35 56 70 q 36 104 28 150 q 19 195 19 245 q 19 295 27 344 q 35 393 53 432 q 71 471 102 496 q 132 520 177 520 q 203 520 220 512 q 237 504 249 494 q 261 484 270 476 q 278 468 287 468 q 299 468 302 475 q 305 482 308 490 q 311 499 318 506 q 326 513 347 513 q 364 513 373 508 q 382 503 386 495 q 389 487 389 476 q 389 465 389 454 z m 200 101 q 226 101 244 116 q 261 132 272 154 q 283 177 288 202 q 293 228 293 249 l 292 267 q 292 289 286 316 q 280 342 268 366 q 255 389 236 404 q 217 420 190 420 q 169 420 156 400 q 142 379 134 351 q 127 323 124 294 q 122 264 122 247 q 122 173 139 137 q 156 101 200 101 z"},"d":{"x_min":0,"x_max":421,"ha":421,"o":"m 393 195 l 393 108 q 393 91 393 70 q 393 50 390 32 q 387 14 378 2 q 370 -10 353 -10 q 335 -10 326 -1 q 317 8 312 20 q 307 31 304 40 q 302 49 297 49 q 292 49 284 40 q 277 31 265 20 q 253 8 236 -1 q 219 -10 195 -10 q 107 -10 66 65 q 24 140 24 272 q 24 391 64 456 q 104 520 182 520 q 204 520 220 514 q 237 507 248 499 q 260 491 268 484 q 276 478 281 478 q 291 478 291 546 q 291 562 290 578 q 290 595 290 610 q 290 624 290 635 q 289 646 289 650 q 289 663 290 677 q 290 691 294 702 q 299 713 309 720 q 319 728 338 728 q 360 728 370 722 q 381 715 384 704 q 388 693 388 678 q 388 664 389 648 q 391 597 390 547 q 390 497 391 446 z m 291 264 q 291 284 287 310 q 283 337 273 361 q 263 385 246 402 q 229 418 203 418 q 178 418 162 400 q 147 383 138 358 q 129 334 126 308 q 122 281 122 263 q 122 247 125 218 q 128 188 136 160 q 144 131 158 110 q 173 88 196 88 q 222 88 240 106 q 257 123 268 148 q 280 172 285 200 q 290 227 290 247 z"},"1":{"x_min":0,"x_max":2103,"ha":2103,"o":"m 47 319 q 47 398 64 447 q 80 496 110 523 q 141 550 184 560 q 226 569 278 569 q 330 569 372 560 q 415 550 445 523 q 475 496 492 447 q 508 398 508 319 q 508 240 492 191 q 475 142 445 114 q 415 87 372 78 q 330 68 278 68 q 226 68 184 78 q 141 87 110 114 q 80 142 64 191 q 47 240 47 319 z m 79 319 q 79 246 92 202 q 106 157 132 132 q 158 108 195 100 q 232 92 278 92 q 324 92 361 100 q 398 108 424 132 q 449 157 462 202 q 476 246 476 319 q 476 392 462 436 q 449 481 424 505 q 398 529 361 537 q 324 545 278 545 q 232 545 195 537 q 158 529 132 504 q 106 480 92 436 q 79 391 79 319 z m 2007 318 q 2007 238 1962 192 q 1917 146 1837 146 q 1757 146 1712 192 q 1667 238 1667 318 q 1667 398 1712 444 q 1757 490 1837 490 q 1917 490 1962 444 q 2007 397 2007 318 z m 293 256 l 293 298 q 293 301 291 303 l 187 409 l 187 208 q 187 191 193 191 l 137 191 q 143 191 143 208 l 143 453 q 143 468 137 470 l 193 470 q 191 470 191 468 q 191 463 193 456 q 195 449 203 441 l 290 353 q 293 350 293 353 l 293 469 q 293 485 287 486 l 346 486 q 344 486 340 481 q 337 476 337 469 l 337 256 z m 218 469 q 218 484 212 486 l 268 486 q 265 486 264 481 q 262 476 262 469 l 262 389 l 218 433 z m 880 317 q 880 257 846 214 q 811 170 753 158 q 736 154 718 154 q 701 153 684 153 l 568 153 l 568 483 l 687 483 q 728 483 763 474 q 798 465 824 445 q 850 425 865 394 q 880 362 880 317 z m 945 153 l 945 483 l 1184 483 l 1184 419 l 1030 419 l 1030 362 l 1173 362 l 1173 299 l 1030 299 l 1030 217 l 1184 217 l 1184 153 z m 1517 153 l 1517 374 l 1456 230 l 1397 230 l 1335 374 l 1335 153 l 1255 153 l 1255 483 l 1354 483 l 1428 317 l 1503 483 l 1602 483 l 1602 153 z m 212 151 q 214 151 216 156 q 218 161 218 168 l 218 370 l 262 325 l 262 260 q 262 251 268 251 l 361 251 q 368 251 368 260 l 368 441 q 368 448 366 453 q 365 458 362 458 l 418 458 q 416 458 414 453 q 412 448 412 441 l 412 184 q 412 167 418 167 l 362 167 q 368 167 368 184 l 368 211 q 368 217 366 218 q 365 220 361 220 l 268 220 q 265 220 264 218 q 262 217 262 211 l 262 168 q 262 161 264 156 q 265 151 268 151 z m 1837 208 q 1860 208 1876 218 q 1892 228 1902 244 q 1911 259 1915 279 q 1919 299 1919 318 q 1919 338 1915 358 q 1911 377 1902 392 q 1892 408 1876 418 q 1860 428 1837 428 q 1814 428 1798 418 q 1782 408 1772 392 q 1763 377 1759 358 q 1755 338 1755 318 q 1755 299 1759 279 q 1763 259 1772 244 q 1782 228 1798 218 q 1814 208 1837 208 z m 792 319 q 792 348 784 368 q 775 387 760 399 q 745 411 723 416 q 701 421 674 421 l 653 421 l 653 215 l 674 215 q 729 215 760 237 q 792 259 792 319 z m 337 215 l 337 184 q 337 177 339 172 q 341 167 343 167 l 287 167 q 293 169 293 184 l 293 215 z"},"5":{"x_min":0,"x_max":2103,"ha":2103,"o":"m 47 319 q 47 398 64 447 q 80 496 110 523 q 141 550 184 560 q 226 569 278 569 q 330 569 372 560 q 415 550 445 523 q 475 496 492 447 q 508 398 508 319 q 508 240 492 191 q 475 142 445 114 q 415 87 372 78 q 330 68 278 68 q 226 68 184 78 q 141 87 110 114 q 80 142 64 191 q 47 240 47 319 z m 79 319 q 79 246 92 202 q 106 157 132 132 q 158 108 195 100 q 232 92 278 92 q 324 92 361 100 q 398 108 424 132 q 449 157 462 202 q 476 246 476 319 q 476 392 462 436 q 449 481 424 505 q 398 529 361 537 q 324 545 278 545 q 232 545 195 537 q 158 529 132 504 q 106 480 92 436 q 79 391 79 319 z m 2007 318 q 2007 238 1962 192 q 1917 146 1837 146 q 1757 146 1712 192 q 1667 238 1667 318 q 1667 398 1712 444 q 1757 490 1837 490 q 1917 490 1962 444 q 2007 397 2007 318 z m 293 256 l 293 298 q 293 301 291 303 l 187 409 l 187 208 q 187 191 193 191 l 137 191 q 143 191 143 208 l 143 453 q 143 468 137 470 l 193 470 q 191 470 191 468 q 191 463 193 456 q 195 449 203 441 l 290 353 q 293 350 293 353 l 293 469 q 293 485 287 486 l 346 486 q 344 486 340 481 q 337 476 337 469 l 337 256 z m 218 469 q 218 484 212 486 l 268 486 q 265 486 264 481 q 262 476 262 469 l 262 389 l 218 433 z m 880 317 q 880 257 846 214 q 811 170 753 158 q 736 154 718 154 q 701 153 684 153 l 568 153 l 568 483 l 687 483 q 728 483 763 474 q 798 465 824 445 q 850 425 865 394 q 880 362 880 317 z m 945 153 l 945 483 l 1184 483 l 1184 419 l 1030 419 l 1030 362 l 1173 362 l 1173 299 l 1030 299 l 1030 217 l 1184 217 l 1184 153 z m 1517 153 l 1517 374 l 1456 230 l 1397 230 l 1335 374 l 1335 153 l 1255 153 l 1255 483 l 1354 483 l 1428 317 l 1503 483 l 1602 483 l 1602 153 z m 212 151 q 214 151 216 156 q 218 161 218 168 l 218 370 l 262 325 l 262 260 q 262 251 268 251 l 361 251 q 368 251 368 260 l 368 441 q 368 448 366 453 q 365 458 362 458 l 418 458 q 416 458 414 453 q 412 448 412 441 l 412 184 q 412 167 418 167 l 362 167 q 368 167 368 184 l 368 211 q 368 217 366 218 q 365 220 361 220 l 268 220 q 265 220 264 218 q 262 217 262 211 l 262 168 q 262 161 264 156 q 265 151 268 151 z m 1837 208 q 1860 208 1876 218 q 1892 228 1902 244 q 1911 259 1915 279 q 1919 299 1919 318 q 1919 338 1915 358 q 1911 377 1902 392 q 1892 408 1876 418 q 1860 428 1837 428 q 1814 428 1798 418 q 1782 408 1772 392 q 1763 377 1759 358 q 1755 338 1755 318 q 1755 299 1759 279 q 1763 259 1772 244 q 1782 228 1798 218 q 1814 208 1837 208 z m 792 319 q 792 348 784 368 q 775 387 760 399 q 745 411 723 416 q 701 421 674 421 l 653 421 l 653 215 l 674 215 q 729 215 760 237 q 792 259 792 319 z m 337 215 l 337 184 q 337 177 339 172 q 341 167 343 167 l 287 167 q 293 169 293 184 l 293 215 z"}}}
